<svg width="21" height="29" viewBox="0 0 21 29" fill="none" xmlns="http://www.w3.org/2000/svg">
<path d="M16.8335 2.505H19.1575C19.9014 2.505 20.5067 1.89973 20.5067 1.15582C20.5067 0.551801 20.0152 0.0603299 19.4112 0.0603299H17.5851C17.2983 0.0603299 17.0319 0.18947 16.8542 0.414674L16.1815 1.26728C15.9985 1.49911 15.9649 1.80826 16.0937 2.07407C16.0929 2.07249 16.0924 2.07085 16.0916 2.06926L15.3982 2.94815L13.6641 2.61958C13.3474 1.16375 12.0494 0.0698455 10.5001 0.0698455C8.9507 0.0698455 7.65267 1.16375 7.33599 2.61964L5.60194 2.94821L4.86652 2.01613C4.86703 2.01511 4.86759 2.01409 4.8681 2.01307C4.99237 1.74918 4.95726 1.44298 4.77657 1.21404L4.09824 0.354295C3.91558 0.122804 3.63085 -0.00882836 3.33563 0.000460707L1.58074 0.0603865C0.980461 0.0648045 0.493408 0.554519 0.493408 1.15582C0.493408 1.89973 1.09867 2.505 1.84259 2.505C1.84582 2.505 1.84904 2.50494 1.85227 2.50488L4.12555 2.45306L4.67026 3.14345C4.67065 3.14334 4.67105 3.14322 4.67145 3.14305C4.31104 3.27684 4.03367 3.56695 3.91161 3.92469L2.16527 3.92464C1.92987 3.92464 1.73911 4.1154 1.73911 4.3508C1.73911 4.5862 1.92993 4.77696 2.16527 4.77696H3.92277C4.103 5.25977 4.5687 5.60454 5.11358 5.60454H7.71883C5.58789 6.04056 3.97992 7.92992 3.97992 10.1878V11.6817V14.2673V16.117C3.97992 16.3524 4.17074 16.5431 4.40609 16.5431C4.64148 16.5431 4.83225 16.3524 4.83225 16.117V14.6934H6.19434C6.68185 14.6934 7.0785 14.2968 7.0785 13.8093V12.1397C7.0785 11.6522 6.68185 11.2556 6.19434 11.2556H4.83225V10.188C4.83225 8.23657 6.30117 6.62288 8.19115 6.39173L8.68393 11.5977C8.7374 12.1626 9.20559 12.5886 9.77301 12.5886H11.2268C11.7942 12.5886 12.2624 12.1626 12.3158 11.5977L12.8086 6.39173C14.6986 6.62288 16.1675 8.23657 16.1675 10.188V11.2557H14.8054C14.3179 11.2557 13.9213 11.6523 13.9213 12.1398V13.8094C13.9213 14.2969 14.3179 14.6935 14.8054 14.6935H16.1675V19.0255C16.1675 19.7847 15.6553 20.4517 14.9218 20.6478L14.1977 20.8413L14.6255 19.4255C14.8212 18.7781 14.8238 18.1031 14.6331 17.4732C14.3701 16.6049 13.8243 15.8245 13.0962 15.2759C12.3431 14.7084 11.4453 14.4085 10.4999 14.4085C9.55449 14.4085 8.65674 14.7084 7.90359 15.2759C7.17547 15.8246 6.62963 16.6049 6.3667 17.4732C6.17599 18.1031 6.1786 18.7781 6.37424 19.4255L6.80204 20.8413L6.07795 20.6478C5.34445 20.4518 4.83219 19.7847 4.83219 19.0255V18.103C4.83219 17.8676 4.64137 17.6769 4.40603 17.6769C4.17063 17.6769 3.97987 17.8676 3.97987 18.103V19.0255C3.97987 20.17 4.7521 21.1757 5.8579 21.4713L6.99496 21.7751V24.9427C6.99496 25.4507 7.40832 25.8641 7.91645 25.8641H8.3971V26.8972C8.39727 28.0567 9.34056 29 10.5001 29C11.6595 29 12.6028 28.0567 12.6028 26.8972V25.8641H13.0835C13.5916 25.8641 14.005 25.4507 14.005 24.9427V21.7751L15.142 21.4713C16.2478 21.1757 17.0201 20.17 17.0201 19.0255V14.2674V11.6819V10.188C17.0201 7.93004 15.4121 6.04067 13.2812 5.60465H15.8864C16.4313 5.60465 16.897 5.25988 17.0772 4.77708H18.8347C19.0701 4.77708 19.2609 4.58631 19.2609 4.35091C19.2609 4.11552 19.0701 3.92475 18.8347 3.92475H17.0884C16.9664 3.56723 16.6893 3.27729 16.3293 3.14339C16.3294 3.14345 16.3296 3.14351 16.3298 3.14356L16.8335 2.505ZM17.5234 0.942677C17.5384 0.923646 17.5609 0.912715 17.5851 0.912715H19.4112C19.5453 0.912715 19.6543 1.02175 19.6543 1.15582C19.6543 1.42979 19.4314 1.65267 19.1575 1.65267H16.9631L17.5234 0.942677ZM1.83851 1.65267C1.56641 1.65046 1.34579 1.42843 1.34579 1.15582C1.34579 1.02175 1.45488 0.912715 1.58889 0.912715C1.59377 0.912715 1.59858 0.912658 1.60345 0.912488L3.36463 0.852392C3.36554 0.852336 3.36639 0.852336 3.3673 0.852336C3.39131 0.852336 3.41425 0.863381 3.42915 0.882242L3.99816 1.60345L1.83851 1.65267ZM5.1137 4.75227C4.88306 4.75227 4.69541 4.56462 4.69541 4.33398C4.69541 4.13319 4.83859 3.96032 5.03582 3.92299L7.26774 3.50011C7.29402 3.94786 7.41183 4.37125 7.60249 4.75227H5.1137ZM4.83236 12.108H6.19446C6.21202 12.108 6.22623 12.1223 6.22623 12.1398V13.8093C6.22623 13.8269 6.21196 13.8411 6.19446 13.8411H4.83236V12.108ZM8.39727 25.0118H7.91662C7.8785 25.0118 7.84752 24.9808 7.84752 24.9427V24.3674C7.84752 24.3293 7.8785 24.2982 7.91662 24.2982H8.39727V25.0118ZM8.39733 23.4458H8.39727H7.91662C7.89328 23.4458 7.8704 23.4476 7.84752 23.4493V22.348C8.01783 22.4544 8.20186 22.5399 8.39733 22.5986V23.4458ZM11.7505 26.8972C11.7505 27.5867 11.1895 28.1476 10.5001 28.1476C9.81062 28.1476 9.24965 27.5867 9.24965 26.8972V22.6966H11.7505V26.8972ZM13.1526 24.9427C13.1526 24.9808 13.1217 25.0118 13.0835 25.0118H12.6029V24.2983H13.0835C13.1217 24.2983 13.1526 24.3293 13.1526 24.3674V24.9427ZM13.1527 23.4493C13.1298 23.4476 13.1069 23.4458 13.0835 23.4458H12.6029V22.5986C12.7983 22.5398 12.9824 22.4544 13.1527 22.348V23.4493ZM13.8098 19.179L13.3138 20.8203C13.2918 20.8933 13.2643 20.9632 13.2322 21.03C13.2104 21.0604 13.1927 21.0937 13.1796 21.1293C13.1609 21.1616 13.141 21.1929 13.1201 21.2234C13.1141 21.2314 13.1085 21.2396 13.1031 21.248C12.8774 21.5623 12.5326 21.7735 12.1408 21.829C12.1324 21.8296 12.1242 21.8308 12.1159 21.832C12.0563 21.8393 11.996 21.8443 11.9346 21.8443H9.06551C9.00412 21.8443 8.94385 21.8393 8.88426 21.832C8.87605 21.8308 8.86778 21.8296 8.8594 21.829C8.4675 21.7735 8.12262 21.5622 7.89696 21.2478C7.89158 21.2396 7.88609 21.2314 7.88014 21.2235C7.85918 21.193 7.8393 21.1615 7.82055 21.1292C7.80736 21.0936 7.78974 21.0604 7.76805 21.03C7.73588 20.9632 7.7084 20.8931 7.68631 20.8202L7.19037 19.1789C7.04356 18.693 7.0409 18.1886 7.18272 17.7203C7.62124 16.2721 8.98542 15.2607 10.5001 15.2607C12.0148 15.2607 13.379 16.2721 13.8175 17.7203C13.9593 18.1887 13.9566 18.6931 13.8098 19.179ZM16.1677 13.8412H14.8056C14.7881 13.8412 14.7739 13.8269 14.7739 13.8094V12.1398C14.7739 12.1223 14.7881 12.1081 14.8056 12.1081H16.1677V13.8412ZM11.4674 11.5173C11.4556 11.642 11.3522 11.7362 11.2269 11.7362H10.9262H10.0738H9.77312C9.64784 11.7362 9.54441 11.642 9.53263 11.5173L9.04467 6.36222H9.42173C9.4437 6.36998 9.46591 6.37678 9.488 6.38409C9.50805 6.39071 9.52793 6.39774 9.54815 6.40391C9.59369 6.41796 9.6394 6.43104 9.68539 6.44299C9.7021 6.44735 9.71903 6.45092 9.73586 6.455C9.76786 6.46276 9.79986 6.47046 9.83203 6.47726C9.85163 6.48139 9.87145 6.48491 9.89116 6.4887C9.92135 6.49448 9.95154 6.50003 9.9819 6.50496C10.0018 6.50819 10.0219 6.51107 10.0419 6.51391C10.0526 6.51544 10.0632 6.51725 10.0738 6.51866V8.23742C10.0738 8.47282 10.2647 8.66359 10.5 8.66359C10.7354 8.66359 10.9262 8.47282 10.9262 8.23742V6.51866C10.9368 6.51725 10.9474 6.51544 10.958 6.51391C10.9781 6.51107 10.9981 6.50819 11.0181 6.50496C11.0484 6.50009 11.0786 6.49448 11.1088 6.4887C11.1285 6.48491 11.1484 6.48139 11.168 6.47726C11.2001 6.47046 11.2321 6.46276 11.2641 6.455C11.2809 6.45092 11.2979 6.44735 11.3146 6.44299C11.3606 6.43104 11.4064 6.41796 11.4518 6.40391C11.4721 6.39768 11.4919 6.39071 11.512 6.38409C11.5341 6.37678 11.5563 6.36998 11.5783 6.36222H11.9553L11.4674 11.5173ZM11.3351 5.54337C11.3181 5.54971 11.301 5.55566 11.2839 5.56161C11.2659 5.56789 11.2479 5.57412 11.2298 5.57996C11.2116 5.58579 11.1934 5.59123 11.1752 5.59661C11.1572 5.60194 11.1392 5.60709 11.1211 5.61202C11.103 5.61689 11.0849 5.62148 11.0667 5.62595C11.0477 5.6306 11.0286 5.63501 11.0094 5.6392C10.9919 5.64306 10.9744 5.64674 10.9569 5.65014C10.9364 5.65416 10.9158 5.65773 10.8951 5.66118C10.8785 5.66396 10.8619 5.66679 10.8452 5.66922C10.8228 5.67245 10.8004 5.67517 10.7779 5.67783C10.7625 5.67965 10.7471 5.68163 10.7317 5.6831C10.7063 5.68554 10.6808 5.68729 10.6552 5.68894C10.6423 5.68979 10.6294 5.69097 10.6164 5.6916C10.5779 5.69347 10.5391 5.69454 10.5001 5.69454C10.4611 5.69454 10.4223 5.69347 10.3838 5.6916C10.3708 5.69097 10.3579 5.68979 10.345 5.68894C10.3195 5.68729 10.2939 5.68554 10.2686 5.6831C10.2531 5.68163 10.2377 5.67965 10.2223 5.67783C10.1999 5.67523 10.1774 5.67251 10.1551 5.66922C10.1383 5.66679 10.1217 5.66401 10.1051 5.66118C10.0844 5.65773 10.0639 5.6541 10.0434 5.65014C10.0258 5.64668 10.0083 5.64306 9.9908 5.6392C9.97159 5.63501 9.95251 5.6306 9.93347 5.62595C9.91529 5.62148 9.89717 5.61689 9.87916 5.61202C9.86103 5.60715 9.84302 5.60194 9.82506 5.59661C9.80683 5.59123 9.78859 5.58574 9.77046 5.57996C9.75228 5.57412 9.73433 5.56784 9.71632 5.56161C9.69921 5.55566 9.68211 5.54971 9.66511 5.54337C8.76011 5.20409 8.11407 4.33041 8.11407 3.30839C8.11407 3.21567 8.11995 3.12436 8.13026 3.03442C8.13043 3.03306 8.13066 3.0317 8.13077 3.03028C8.26903 1.84519 9.2786 0.922174 10.5002 0.922174C11.7217 0.922174 12.7313 1.84513 12.8696 3.03028C12.8697 3.03164 12.8699 3.033 12.8701 3.03442C12.8804 3.12436 12.8863 3.21572 12.8863 3.30839C12.8862 4.33041 12.2402 5.20409 11.3351 5.54337ZM15.8864 4.75227H13.3976C13.5883 4.37125 13.7061 3.94792 13.7324 3.50011L15.9643 3.92299C16.1616 3.96032 16.3048 4.13319 16.3048 4.33398C16.3048 4.56456 16.1171 4.75227 15.8864 4.75227Z" fill="black"/>
</svg>
