<svg width="19" height="19" viewBox="0 0 19 19" fill="none" xmlns="http://www.w3.org/2000/svg">
<path d="M9.85862 12.0095L5.20048 16.9416L3.67688 17.4794L3.16902 18.0171C2.88867 18.314 2.52098 18.4624 2.15328 18.4624C1.78559 18.4624 1.4179 18.314 1.13755 18.0171C0.57687 17.4229 0.57687 16.4598 1.13755 15.8662L1.64542 15.3284L2.15328 13.7152L3.76423 12.0095H9.85862Z" fill="black"/>
<path fill-rule="evenodd" clip-rule="evenodd" d="M14.5102 7.65652C14.7163 7.86263 15.0505 7.86262 15.2566 7.65651L18.1896 4.72347C18.1896 4.72348 18.1896 4.72346 18.1896 4.72347C19.2702 3.64293 19.2702 1.89097 18.1896 0.810396M18.1896 0.810396C17.1091 -0.270136 15.3572 -0.270111 14.2766 0.810374L11.3435 3.74347C11.1374 3.94958 11.1374 4.28375 11.3436 4.48986C11.5497 4.69596 11.8838 4.69596 12.0899 4.48985L15.0229 1.55681C15.6914 0.888454 16.7749 0.888487 17.4432 1.55679C18.1116 2.22515 18.1116 3.30874 17.4432 3.97704L14.5102 6.91013C14.3041 7.11624 14.3041 7.45041 14.5102 7.65652" fill="black"/>
<path fill-rule="evenodd" clip-rule="evenodd" d="M2.70289 17.6559C2.32609 18.0327 1.71507 18.0327 1.33819 17.6559L1.33815 17.6559C0.961334 17.279 0.961369 16.668 1.33817 16.2912L1.86595 15.7634C1.92388 15.7055 1.96753 15.6348 1.99344 15.5571L2.48182 14.092L10.2954 6.27842C10.5015 6.07231 10.5015 5.73814 10.2954 5.53203C10.0893 5.32592 9.75511 5.32592 9.549 5.53203L1.64733 13.4337C1.5894 13.4916 1.54574 13.5623 1.51983 13.64L1.03146 15.1051L0.591779 15.5448C-0.197269 16.3339 -0.197245 17.6132 0.591763 18.4023L0.591796 18.4023C1.38088 19.1913 2.66023 19.1913 3.44928 18.4023L3.88895 17.9626L5.35409 17.4742C5.43182 17.4483 5.50245 17.4047 5.56038 17.3467L13.4621 9.44508C13.6682 9.23897 13.6682 8.9048 13.4621 8.69869C13.2559 8.49258 12.9218 8.49258 12.7157 8.69869L4.90209 16.5123L3.43696 17.0006C3.35923 17.0265 3.2886 17.0702 3.23066 17.1281L2.70289 17.6559Z" fill="black"/>
<path fill-rule="evenodd" clip-rule="evenodd" d="M14.4047 10.9288C14.6108 11.1349 14.9449 11.1349 15.151 10.9288L16.7344 9.34543C16.9405 9.13932 16.9405 8.80515 16.7344 8.59904L10.4011 2.26572C10.1949 2.05961 9.86077 2.05961 9.65466 2.26572L8.07133 3.84905C7.86522 4.05516 7.86522 4.38933 8.07133 4.59544L14.4047 10.9288ZM9.19091 4.22224L10.0279 3.3853L15.6148 8.97224L14.7778 9.80918L9.19091 4.22224Z" fill="black"/>
</svg>
