<svg width="95" height="53" viewBox="0 0 95 53" fill="none" xmlns="http://www.w3.org/2000/svg">
<path d="M18.8241 50.2639C14.4373 50.2639 10.8818 49.6435 10.8818 48.8785C10.8818 48.1135 14.4373 47.4931 18.8241 47.4931C23.2109 47.4931 26.7649 48.1135 26.7649 48.8785" fill="#D9DADB"/>
<path d="M25.4215 6.96759L18.8376 5.97372L12.2537 6.96759L18.8376 8.27316L25.4215 6.96759Z" fill="#E1C080"/>
<path d="M18.8376 8.27318L12.2537 6.96609V12.2336C14.1647 11.0394 16.4191 10.3437 18.8376 10.3362V8.27318Z" fill="#D5AD6F"/>
<path d="M18.8376 10.3362C18.8527 10.3362 18.8678 10.3362 18.8813 10.3362C21.2788 10.3362 23.5181 11.0108 25.4216 12.1793V6.96909L18.8376 8.27617V10.3392V10.3362Z" fill="#C49F67"/>
<path d="M1.73022 5.49787C2.3341 6.11075 3.18194 6.49324 4.12164 6.49324C4.79328 6.49324 5.41824 6.29597 5.94231 5.96167L4.28729 3.69235C3.59908 4.18025 2.14134 5.20272 1.73022 5.49938V5.49787Z" fill="#737373"/>
<path d="M7.44365 3.24662C7.44365 1.45315 5.95579 0 4.12157 0C3.51017 0 2.93942 0.165644 2.44849 0.447238L6.28409 5.70869C6.99338 5.11388 7.44516 4.23295 7.44516 3.24662H7.44365Z" fill="#737373"/>
<path d="M2.09169 0.680634C1.92905 0.804113 1.77695 0.941146 1.63991 1.09173C1.22578 1.56306 0.929111 2.15938 0.832732 2.79786C0.82972 2.82196 0.823696 2.84605 0.822191 2.87014C0.817673 2.90478 0.814661 2.93941 0.811649 2.97405C0.804119 3.0644 0.798096 3.15475 0.798096 3.24661C0.798096 3.35653 0.804119 3.46646 0.814661 3.57488C0.819179 3.61705 0.828214 3.6562 0.832732 3.69686C0.841768 3.76311 0.849297 3.82787 0.862851 3.89262C0.873392 3.94382 0.888451 3.99351 0.902005 4.04471C0.915558 4.09591 0.9261 4.14861 0.942665 4.19831C0.960736 4.25402 0.981819 4.30974 1.0029 4.36395C1.01947 4.40611 1.03302 4.44978 1.05109 4.49195C1.07669 4.55068 1.10531 4.60639 1.13392 4.66361C1.15199 4.69975 1.16855 4.7359 1.18663 4.77204C1.21825 4.83076 1.25439 4.88648 1.29053 4.9422C1.31011 4.97382 1.32818 5.00544 1.34776 5.03556C1.38541 5.09128 1.42757 5.14549 1.46974 5.1997C1.49082 5.22831 1.51191 5.25692 1.53449 5.28403C1.57817 5.33673 1.62334 5.38492 1.67003 5.43461C1.68961 5.45569 1.70918 5.47828 1.73027 5.49936C2.13988 5.20271 3.59912 4.18024 4.28733 3.69234L2.09169 0.680634Z" fill="#474747"/>
<path d="M2.44702 0.447248L2.34462 0.305698C2.27535 0.210829 2.14282 0.189747 2.04795 0.259016C1.95308 0.328286 1.93199 0.460801 2.00127 0.55567L2.09162 0.67915C2.09162 0.67915 2.09765 0.673126 2.10066 0.67162C2.21059 0.588798 2.32655 0.515011 2.44702 0.445742V0.447248Z" fill="#B3B3B3"/>
<path d="M10.7599 12.2983C10.7599 11.6553 10.3127 11.1945 10.2118 11.0996L6.2813 5.70868C6.17287 5.79903 6.05993 5.88336 5.93945 5.96016L9.88047 11.3662C9.8895 11.3782 9.90005 11.3903 9.91209 11.4008C9.9151 11.4038 10.3353 11.7848 10.3353 12.2983C10.3353 12.6823 10.1289 13.6024 9.98438 14.2002C10.1274 14.2198 10.269 14.2393 10.4075 14.2559C10.5551 13.6385 10.7584 12.7154 10.7584 12.2983H10.7599Z" fill="#B3B3B3"/>
<path d="M2.44719 0.447235C2.32672 0.516504 2.21076 0.590291 2.10083 0.673113C2.58724 1.13089 4.03444 3.02676 4.49977 3.53875C4.44255 3.57941 4.36876 3.63211 4.28593 3.69084L5.94095 5.96016C6.06142 5.88336 6.17437 5.79904 6.28279 5.70869L2.44719 0.447235Z" fill="#B3B3B3"/>
<path d="M4.49978 3.53876C4.03444 3.02677 2.58725 1.13091 2.10083 0.673126C2.09782 0.676138 2.09481 0.677644 2.0918 0.680656L4.28593 3.69086C4.36876 3.63213 4.44255 3.57942 4.49978 3.53876Z" fill="#B3B3B3"/>
<path d="M33.6002 0C31.7645 0 30.2766 1.45315 30.2766 3.24662C30.2766 4.23295 30.7284 5.11388 31.4377 5.70869L35.2748 0.447238C34.7823 0.165644 34.2131 0 33.6017 0H33.6002Z" fill="#737373"/>
<path d="M31.781 5.96016C32.3051 6.29596 32.9285 6.49172 33.6017 6.49172C34.5414 6.49172 35.3877 6.10924 35.9931 5.49635C35.5835 5.1997 34.1242 4.17723 33.436 3.68933L31.781 5.95865V5.96016Z" fill="#737373"/>
<path d="M36.9102 2.97256C36.9072 2.93943 36.9057 2.9048 36.9011 2.87167C36.8951 2.82198 36.8861 2.77379 36.8785 2.7241C36.8123 2.34161 36.6752 1.97117 36.4855 1.63687C36.2671 1.26492 35.9765 0.942672 35.6316 0.682159L33.4375 3.69236C34.1257 4.18026 35.5834 5.20273 35.9946 5.49938C36.0141 5.47981 36.0322 5.45872 36.0518 5.43764C36.0985 5.38795 36.1467 5.33675 36.1903 5.28405C36.2114 5.25845 36.231 5.22984 36.2521 5.20273C36.2942 5.14852 36.3364 5.09431 36.3756 5.03709C36.3967 5.00697 36.4132 4.97535 36.4328 4.94523C36.4689 4.88801 36.5051 4.83229 36.5367 4.77206C36.5563 4.73742 36.5713 4.70128 36.5894 4.66514C36.618 4.60792 36.6481 4.5507 36.6722 4.49197C36.6903 4.45131 36.7039 4.40764 36.7204 4.36548C36.7415 4.30976 36.7641 4.25555 36.7807 4.19833C36.7972 4.14713 36.8078 4.09593 36.8213 4.04473C36.8349 3.99353 36.8499 3.94384 36.8605 3.89264C36.874 3.82789 36.8816 3.76313 36.8906 3.69688C36.8966 3.65622 36.9057 3.61556 36.9087 3.5749C36.9192 3.46648 36.9252 3.35806 36.9252 3.24663C36.9252 3.15477 36.9192 3.06291 36.9117 2.97256H36.9102Z" fill="#474747"/>
<path d="M27.5089 11.0996C27.408 11.1945 26.9607 11.6553 26.9607 12.2983C26.9607 12.7154 27.164 13.6385 27.3116 14.2559C27.4516 14.2393 27.5932 14.2198 27.7347 14.2002C27.5902 13.6024 27.3839 12.6823 27.3839 12.2983C27.3839 11.7848 27.804 11.4038 27.807 11.4008C27.8191 11.3903 27.8296 11.3797 27.8386 11.3662L31.7797 5.96016C31.6607 5.88336 31.5462 5.79903 31.4378 5.70868L27.5073 11.0996H27.5089Z" fill="#B3B3B3"/>
<path d="M35.6288 0.680655L35.7192 0.55567C35.7885 0.460801 35.7674 0.328286 35.6725 0.259016C35.5776 0.189747 35.4451 0.210829 35.3758 0.305698L35.2734 0.447248C35.3864 0.512 35.4978 0.581269 35.6017 0.659573C35.6108 0.667103 35.6198 0.674632 35.6288 0.680655Z" fill="#B3B3B3"/>
<path d="M33.2222 3.53875C33.683 3.03128 35.1016 1.14294 35.6031 0.65956C35.4992 0.582762 35.3878 0.513493 35.2748 0.447235L31.4392 5.70869C31.5476 5.79904 31.6606 5.88336 31.7811 5.96016L33.4361 3.69084C33.3532 3.63211 33.2795 3.57941 33.2222 3.53875Z" fill="#B3B3B3"/>
<path d="M33.2222 3.53877C33.2794 3.57943 33.3532 3.63213 33.436 3.69086L35.6301 0.680658C35.6211 0.673129 35.6136 0.6656 35.603 0.659576C35.1016 1.14296 33.683 3.0328 33.2222 3.53877Z" fill="#B3B3B3"/>
<path d="M9.33509 28.8491C9.23269 28.6519 9.1348 28.4576 9.04144 28.2694C8.62429 30.739 8.30654 33.4811 8.50984 35.371H8.80952C8.62279 33.6287 8.91946 31.1606 9.33509 28.8491Z" fill="#CCCCCC"/>
<path d="M12.2868 33.5941C11.9676 33.1498 11.6664 32.7177 11.3878 32.299C11.0339 31.7675 10.7086 31.257 10.4135 30.7676C10.3397 30.6456 10.2704 30.5281 10.1996 30.4092C9.87584 29.8611 9.59122 29.3415 9.33522 28.8491C8.91958 31.1591 8.62442 33.6272 8.80965 35.371H12.3456C12.3395 35.2912 12.3335 35.2098 12.3275 35.1255C12.2944 34.6632 12.2823 34.1467 12.2853 33.5941H12.2868Z" fill="#B3B3B3"/>
<path d="M9.44063 38.8149C9.44063 38.8149 9.1786 38.6553 8.81567 35.4147C8.81417 35.4011 8.81266 35.3861 8.81115 35.3725H8.51147C8.51298 35.3861 8.51449 35.4011 8.51599 35.4147C8.87892 38.6553 9.20119 38.8149 9.20119 38.8149C9.20119 38.8149 10.7734 41.1746 13.6768 42.3356C10.7734 41.1746 9.44063 38.8149 9.44063 38.8149Z" fill="#BFBFBF"/>
<path d="M28.8521 35.371H29.1518C29.3506 33.5158 29.0479 30.8399 28.6428 28.4064C28.5494 28.5931 28.453 28.7844 28.3491 28.9801C28.7527 31.2525 29.0343 33.6603 28.8521 35.371Z" fill="#CCCCCC"/>
<path d="M26.9848 31.3413C26.6429 31.8864 26.2649 32.4572 25.8508 33.0505C25.7273 33.2282 25.6038 33.4058 25.4728 33.5881C25.4412 33.6317 25.4081 33.6784 25.3749 33.7221C25.3764 34.225 25.3644 34.6979 25.3328 35.124C25.3267 35.2084 25.3207 35.2897 25.3147 35.3695H28.8506C29.0328 33.6588 28.7512 31.251 28.3476 28.9786C28.054 29.5388 27.7197 30.1351 27.3372 30.7676C27.2242 30.9558 27.1037 31.1471 26.9833 31.3413H26.9848Z" fill="#B3B3B3"/>
<path d="M13.5683 35.3047C13.1075 34.7144 12.6829 34.1452 12.2868 33.5941C12.2823 34.1467 12.2943 34.6632 12.329 35.1255C12.335 35.2099 12.341 35.2912 12.347 35.371H13.6211C13.6045 35.3499 13.5864 35.3273 13.5698 35.3062L13.5683 35.3047Z" fill="#262626"/>
<path d="M25.3764 33.7236C25.2032 33.963 25.024 34.207 24.8388 34.4524C24.7048 34.6316 24.5692 34.8108 24.4292 34.9945C24.3343 35.118 24.2334 35.246 24.134 35.371H25.3162C25.3222 35.2912 25.3282 35.2098 25.3343 35.1255C25.3659 34.6994 25.3779 34.2265 25.3764 33.7236Z" fill="#262626"/>
<path d="M28.8475 35.4131C28.4846 38.6537 28.221 38.8134 28.221 38.8134C28.221 38.8134 26.8883 41.1745 23.9849 42.334C26.8883 41.173 28.4605 38.8134 28.4605 38.8134C28.4605 38.8134 28.7828 38.6537 29.1457 35.4131C29.1472 35.3996 29.1487 35.3845 29.1502 35.371H28.8505C28.849 35.3845 28.8475 35.3996 28.846 35.4131H28.8475Z" fill="#BFBFBF"/>
<path d="M28.2209 38.8149C28.2209 38.8149 28.483 38.6553 28.8474 35.4147C28.8474 35.4011 28.8504 35.3861 28.8519 35.3725H25.316C25.0946 38.3029 24.9019 38.452 24.9019 38.452C24.9019 38.452 23.9095 40.7604 22.0798 41.8943C21.9698 41.9621 21.8614 42.0269 21.7545 42.0856C21.7153 42.1082 21.6777 42.1263 21.6385 42.1473C21.5723 42.1835 21.5045 42.2196 21.4397 42.2527C21.3931 42.2768 21.3479 42.2964 21.3027 42.3175C21.247 42.3446 21.1913 42.3717 21.1371 42.3958C21.0874 42.4184 21.0392 42.438 20.991 42.4575C20.9428 42.4786 20.8931 42.4997 20.8464 42.5178C20.7952 42.5373 20.747 42.5554 20.6988 42.5735C20.6567 42.5901 20.613 42.6066 20.5708 42.6217C20.5211 42.6397 20.4729 42.6548 20.4248 42.6699C20.3871 42.6819 20.348 42.6955 20.3118 42.706C20.2621 42.7211 20.2154 42.7346 20.1672 42.7467C20.1341 42.7557 20.101 42.7662 20.0678 42.7753C20.0197 42.7873 19.9745 42.7979 19.9293 42.8099C19.9007 42.8174 19.8706 42.825 19.8435 42.831C19.7983 42.8415 19.7561 42.8506 19.7124 42.8581C19.6868 42.8626 19.6612 42.8686 19.6372 42.8732C19.595 42.8807 19.5543 42.8882 19.5152 42.8942C19.4941 42.8972 19.473 42.9018 19.4519 42.9048C19.4128 42.9108 19.3766 42.9153 19.3405 42.9198C19.3224 42.9213 19.3043 42.9244 19.2893 42.9259C19.2531 42.9304 19.2215 42.9334 19.1899 42.9364C19.1763 42.9364 19.1613 42.9394 19.1477 42.9409C19.1176 42.9439 19.089 42.9454 19.0634 42.9469C19.0529 42.9469 19.0423 42.9469 19.0318 42.9484C19.0062 42.9484 18.9836 42.9515 18.964 42.9515C18.9565 42.9515 18.9489 42.9515 18.9414 42.9515C18.9218 42.9515 18.9053 42.9515 18.8902 42.9515H18.8782C18.8616 42.9515 18.8511 42.9515 18.845 42.9515H18.83C18.83 42.9515 18.8119 42.9515 18.7968 42.9515H18.7848C18.7697 42.9515 18.7532 42.9515 18.7336 42.9515C18.7261 42.9515 18.7185 42.9515 18.711 42.9515C18.6899 42.9515 18.6688 42.9499 18.6432 42.9484C18.6342 42.9484 18.6222 42.9484 18.6116 42.9469C18.5845 42.9454 18.5574 42.9439 18.5273 42.9409C18.5137 42.9409 18.5002 42.9379 18.4851 42.9364C18.4535 42.9334 18.4219 42.9304 18.3857 42.9259C18.3692 42.9244 18.3511 42.9213 18.333 42.9198C18.2969 42.9153 18.2607 42.9108 18.2216 42.9048C18.2005 42.9018 18.1794 42.8972 18.1568 42.8942C18.1177 42.8882 18.0785 42.8807 18.0364 42.8732C18.0123 42.8686 17.9851 42.8626 17.9611 42.8581C17.9189 42.8491 17.8767 42.8415 17.8315 42.831C17.8029 42.825 17.7728 42.8174 17.7442 42.8099C17.699 42.7994 17.6538 42.7888 17.6057 42.7768C17.5725 42.7677 17.5394 42.7572 17.5063 42.7482C17.4596 42.7346 17.4129 42.7226 17.3632 42.7075C17.3256 42.697 17.2864 42.6834 17.2488 42.6699C17.2006 42.6533 17.1524 42.6397 17.1027 42.6217C17.0605 42.6066 17.0168 42.5901 16.9732 42.5735C16.925 42.5554 16.8768 42.5389 16.8271 42.5193C16.7804 42.4997 16.7307 42.4786 16.6825 42.459C16.6343 42.438 16.5861 42.4199 16.5364 42.3973C16.4822 42.3732 16.4265 42.3461 16.3708 42.319C16.3241 42.2964 16.2789 42.2768 16.2322 42.2542C16.166 42.2211 16.0982 42.1835 16.032 42.1473C15.9943 42.1263 15.9567 42.1082 15.9175 42.0871C15.8106 42.0269 15.7022 41.9636 15.5922 41.8959C13.761 40.7619 12.7701 38.4535 12.7701 38.4535C12.7701 38.4535 12.5774 38.3044 12.356 35.374H8.82007C8.82157 35.3876 8.82308 35.4026 8.82459 35.4162C9.18751 38.6568 9.44955 38.8164 9.44955 38.8164C9.44955 38.8164 10.7823 41.1761 13.6857 42.3371C16.4988 43.4619 18.705 43.4213 18.8405 43.4183C18.9761 43.4213 21.1822 43.4619 23.9953 42.3371C26.8987 41.1761 28.2315 38.8164 28.2315 38.8164L28.2209 38.8149Z" fill="#999999"/>
<path d="M19.1781 41.0029C19.0772 41.1068 18.9793 41.2092 18.8769 41.3131C18.7895 41.2242 18.7052 41.1369 18.6194 41.048C18.4161 40.8402 18.2233 40.6369 18.029 40.4322C17.0095 39.366 16.0819 38.3405 15.2476 37.3617C14.6618 36.6751 14.1242 36.0125 13.6212 35.371H12.3472C12.5685 38.3014 12.7613 38.4505 12.7613 38.4505C12.7613 38.4505 13.7537 40.7589 15.5834 41.8928C15.6933 41.9606 15.8018 42.0253 15.9087 42.0841C15.9478 42.1052 15.9855 42.1247 16.0231 42.1443C16.0909 42.1804 16.1587 42.2166 16.2234 42.2512C16.2701 42.2753 16.3153 42.2949 16.362 42.316C16.4177 42.3431 16.4734 42.3702 16.5276 42.3943C16.5773 42.4169 16.6255 42.4364 16.6737 42.456C16.7219 42.4771 16.7716 42.4982 16.8183 42.5163C16.868 42.5358 16.9162 42.5524 16.9643 42.5705C17.008 42.587 17.0517 42.6036 17.0939 42.6186C17.1436 42.6367 17.1917 42.6518 17.2399 42.6668C17.2776 42.6789 17.3167 42.6924 17.3544 42.7045C17.4041 42.7195 17.4508 42.7331 17.4974 42.7451C17.5306 42.7542 17.5652 42.7647 17.5968 42.7738C17.645 42.7858 17.6902 42.7963 17.7354 42.8069C17.764 42.8144 17.7941 42.8219 17.8227 42.828C17.8679 42.8385 17.9101 42.846 17.9522 42.8551C17.9778 42.8596 18.0034 42.8656 18.0275 42.8701C18.0697 42.8777 18.1089 42.8837 18.148 42.8912C18.1691 42.8942 18.1917 42.8987 18.2128 42.9018C18.2519 42.9078 18.2881 42.9123 18.3242 42.9168C18.3423 42.9183 18.3603 42.9213 18.3769 42.9228C18.4115 42.9274 18.4447 42.9304 18.4763 42.9334C18.4899 42.9334 18.5049 42.9364 18.5185 42.9379C18.5486 42.9409 18.5772 42.9424 18.6028 42.9439C18.6133 42.9439 18.6254 42.9439 18.6344 42.9454C18.66 42.9454 18.6826 42.9469 18.7022 42.9484C18.7097 42.9484 18.7188 42.9484 18.7248 42.9484C18.7444 42.9484 18.7624 42.9484 18.776 42.9484H18.788C18.8031 42.9484 18.8151 42.9484 18.8212 42.9484C18.8212 42.9484 18.8257 42.9484 18.8272 42.9484C18.8287 42.9484 18.8347 42.9484 18.8347 42.9484C18.8422 42.9484 18.8543 42.9484 18.8678 42.9484H18.8799C18.8934 42.9484 18.9115 42.9484 18.9311 42.9484C18.9386 42.9484 18.9461 42.9484 18.9537 42.9484C18.9748 42.9484 18.9973 42.9469 19.0214 42.9454C19.032 42.9454 19.0425 42.9454 19.0531 42.9439C19.0802 42.9424 19.1073 42.9409 19.1374 42.9379C19.151 42.9379 19.1645 42.9349 19.1796 42.9334C19.2112 42.9304 19.2428 42.9274 19.279 42.9228C19.2955 42.9213 19.3136 42.9183 19.3302 42.9168C19.3663 42.9123 19.4024 42.9078 19.4416 42.9018C19.4627 42.8987 19.4838 42.8942 19.5048 42.8912C19.544 42.8852 19.5847 42.8777 19.6268 42.8701C19.6509 42.8656 19.6765 42.8596 19.7021 42.8551C19.7443 42.846 19.788 42.8385 19.8331 42.828C19.8618 42.8219 19.8904 42.8144 19.919 42.8069C19.9642 42.7963 20.0108 42.7858 20.0575 42.7722C20.0891 42.7632 20.1238 42.7542 20.1569 42.7436C20.2051 42.7301 20.2518 42.718 20.3015 42.703C20.3391 42.6924 20.3768 42.6789 20.4144 42.6668C20.4626 42.6503 20.5108 42.6352 20.5605 42.6186C20.6027 42.6036 20.6463 42.587 20.6885 42.5705C20.7382 42.5524 20.7849 42.5343 20.8361 42.5147C20.8828 42.4967 20.931 42.4741 20.9807 42.4545C21.0288 42.4334 21.077 42.4154 21.1267 42.3928C21.1809 42.3687 21.2367 42.3416 21.2924 42.3145C21.3391 42.2919 21.3827 42.2723 21.4294 42.2497C21.4942 42.2166 21.5619 42.1804 21.6282 42.1443C21.6674 42.1232 21.705 42.1052 21.7442 42.0826C21.8511 42.0223 21.9595 41.9591 22.0694 41.8913C23.9007 40.7574 24.8916 38.4489 24.8916 38.4489C24.8916 38.4489 25.0843 38.2999 25.3057 35.3695H24.1235C22.7772 37.0892 21.1463 38.9685 19.1675 41.0014L19.1781 41.0029Z" fill="#404040"/>
<path d="M20.568 42.6201C20.5183 42.6382 20.4701 42.6533 20.4219 42.6683C20.4701 42.6518 20.5183 42.6367 20.568 42.6201Z" fill="#404040"/>
<path d="M20.8451 42.5178C20.7939 42.5373 20.7457 42.5554 20.6975 42.5735C20.7472 42.5554 20.7939 42.5373 20.8451 42.5178Z" fill="#404040"/>
<path d="M16.3619 42.3175C16.3153 42.2949 16.2701 42.2753 16.2234 42.2527C16.2701 42.2768 16.3153 42.2964 16.3619 42.3175Z" fill="#404040"/>
<path d="M20.3074 42.706C20.2577 42.7211 20.211 42.7346 20.1628 42.7467C20.211 42.7331 20.2577 42.7211 20.3074 42.706Z" fill="#404040"/>
<path d="M19.839 42.8295C19.7938 42.84 19.7502 42.849 19.708 42.8566C19.7517 42.8475 19.7938 42.84 19.839 42.8295Z" fill="#404040"/>
<path d="M20.0651 42.7753C20.0169 42.7873 19.9717 42.7979 19.9265 42.8099C19.9717 42.7994 20.0169 42.7888 20.0651 42.7753Z" fill="#404040"/>
<path d="M17.2398 42.6699C17.1916 42.6533 17.1434 42.6397 17.0938 42.6217C17.1434 42.6397 17.1916 42.6548 17.2398 42.6699Z" fill="#404040"/>
<path d="M18.151 42.8927C18.1118 42.8867 18.0727 42.8792 18.0305 42.8716C18.0727 42.8792 18.1118 42.8852 18.151 42.8927Z" fill="#404040"/>
<path d="M21.1341 42.3958C21.0844 42.4184 21.0362 42.4379 20.988 42.4575C21.0362 42.4364 21.0844 42.4184 21.1341 42.3958Z" fill="#404040"/>
<path d="M17.9537 42.8566C17.9116 42.8475 17.8679 42.84 17.8242 42.8295C17.8694 42.84 17.9116 42.8475 17.9537 42.8566Z" fill="#404040"/>
<path d="M21.4383 42.2512C21.3916 42.2753 21.3464 42.2949 21.3013 42.316C21.348 42.2934 21.3916 42.2738 21.4383 42.2512Z" fill="#404040"/>
<path d="M17.7352 42.8099C17.69 42.7994 17.6449 42.7888 17.5967 42.7768C17.6449 42.7888 17.6885 42.7994 17.7352 42.8099Z" fill="#404040"/>
<path d="M16.6737 42.4575C16.6255 42.4364 16.5773 42.4184 16.5276 42.3958C16.5773 42.4184 16.6255 42.4379 16.6737 42.4575Z" fill="#404040"/>
<path d="M19.0272 42.9454C19.0016 42.9454 18.979 42.9484 18.9595 42.9484C18.9806 42.9484 19.0016 42.9469 19.0272 42.9454Z" fill="#404040"/>
<path d="M18.7035 42.9484C18.6824 42.9484 18.6613 42.9469 18.6357 42.9454C18.6613 42.9454 18.6839 42.9484 18.7035 42.9484Z" fill="#404040"/>
<path d="M16.0231 42.1458C15.9855 42.1247 15.9478 42.1067 15.9087 42.0856C15.9478 42.1067 15.9855 42.1262 16.0231 42.1458Z" fill="#404040"/>
<path d="M17.4973 42.7481C17.4506 42.7346 17.4039 42.7225 17.3542 42.7075C17.4039 42.7225 17.4506 42.7361 17.4973 42.7481Z" fill="#404040"/>
<path d="M18.4778 42.9349C18.4462 42.9319 18.4146 42.9289 18.3784 42.9243C18.4131 42.9289 18.4462 42.9319 18.4778 42.9349Z" fill="#404040"/>
<path d="M19.1434 42.9379C19.1133 42.9409 19.0847 42.9424 19.0591 42.9439C19.0862 42.9424 19.1133 42.9409 19.1434 42.9379Z" fill="#404040"/>
<path d="M10.0867 22.517C10.0867 17.6546 14.0186 13.7123 18.8768 13.6927V11.2653C17.8753 11.2653 16.9055 11.3918 15.9794 11.6297C14.5834 11.9896 13.2913 12.604 12.1513 13.4187C11.7643 13.6957 11.3953 13.9969 11.0459 14.3177C8.9783 14.1656 6.00409 13.369 6.00409 13.369L5.75562 14.9351C6.63809 15.0871 7.62748 15.7362 9.07318 16.6833C8.91656 16.9318 8.76446 17.1848 8.62591 17.4468C7.96933 18.6876 7.53261 20.0625 7.36545 21.5186C7.31576 21.9568 7.28714 22.4011 7.28714 22.8513V22.8573C7.29166 22.9929 7.4016 25.6522 10.1996 30.4062C10.2689 30.5251 10.3397 30.6441 10.4135 30.7646C10.7086 31.254 11.0339 31.7645 11.3878 32.296C12.0127 33.2342 12.7386 34.2371 13.5684 35.3017C14.0849 35.9643 14.6406 36.6479 15.246 37.3587C16.0803 38.3375 17.0094 39.363 18.0274 40.4291C18.2232 40.6339 18.416 40.8372 18.6178 41.045C18.7036 41.1339 18.7879 41.2212 18.8753 41.3101V31.3383C14.0171 31.3187 10.0852 27.3764 10.0852 22.514L10.0867 22.517Z" fill="#DF1C24"/>
<path d="M30.1305 20.0881C30.0612 19.805 29.9799 19.5279 29.8896 19.2553C29.8369 19.0927 29.7796 18.9301 29.7194 18.7705C29.4408 18.0311 29.0884 17.3309 28.6713 16.6728C30.1049 15.7332 31.0883 15.0902 31.9662 14.9381L31.7178 13.372C31.7178 13.372 28.7707 14.161 26.7045 14.3177C26.3461 13.9879 25.9681 13.6807 25.5706 13.3976C25.4079 13.2831 25.2438 13.1717 25.0751 13.0648C24.2288 12.5272 23.3041 12.101 22.3283 11.7954C21.8208 11.6372 21.2982 11.5138 20.7636 11.4249C20.1492 11.324 19.5197 11.2653 18.8767 11.2653V13.6927C18.8888 13.6927 18.9008 13.6927 18.9113 13.6927C23.7845 13.6927 27.7361 17.6441 27.7361 22.517C27.7361 27.39 23.7845 31.3413 18.9113 31.3413C18.8993 31.3413 18.8873 31.3413 18.8767 31.3413V41.3131C18.9791 41.2092 19.077 41.1068 19.1779 41.0029C21.3028 38.8209 23.0286 36.8136 24.4291 34.9945C24.5691 34.8108 24.7047 34.6316 24.8387 34.4524C25.057 34.1603 25.2709 33.8712 25.4742 33.5896C25.6052 33.4074 25.7287 33.2297 25.8522 33.052C26.2648 32.4587 26.6428 31.8879 26.9861 31.3428C27.1081 31.1486 27.2271 30.9573 27.34 30.7691C28.3174 29.1518 28.9875 27.7664 29.4498 26.628C29.6049 26.2455 29.7375 25.8886 29.8489 25.5634C30.4272 23.8693 30.4648 22.9417 30.4678 22.8619V22.8558C30.4678 22.4598 30.4422 22.0713 30.4031 21.6858C30.3474 21.1422 30.26 20.6076 30.132 20.0881H30.1305Z" fill="#C2181F"/>
<path d="M10.3276 22.5171C10.3276 17.7872 14.1527 13.9518 18.8768 13.9337V13.6943C14.0186 13.7139 10.0867 17.6562 10.0867 22.5186C10.0867 27.381 14.0186 31.3233 18.8768 31.3429V31.1034C14.1512 31.0839 10.3276 27.2485 10.3276 22.5201V22.5171Z" fill="#77787B"/>
<path d="M10.3276 22.517C10.3276 27.2454 14.1527 31.0823 18.8768 31.1004V30.4107C14.5337 30.3911 11.0174 26.8644 11.0174 22.517C11.0174 18.1696 14.5322 14.6429 18.8768 14.6233V13.9337C14.1512 13.9532 10.3276 17.7886 10.3276 22.517Z" fill="#808080"/>
<path d="M11.0173 22.517C11.0173 26.8644 14.5322 30.3911 18.8768 30.4107V14.6233C14.5337 14.6429 11.0173 18.1696 11.0173 22.517Z" fill="white"/>
<path d="M27.7361 22.517C27.7361 17.6441 23.7845 13.6927 18.9113 13.6927C18.8993 13.6927 18.8873 13.6927 18.8767 13.6927V13.9321C18.8888 13.9321 18.9008 13.9321 18.9113 13.9321C23.652 13.9321 27.4951 17.7751 27.4951 22.5155C27.4951 27.2559 23.652 31.0989 18.9113 31.0989C18.8993 31.0989 18.8873 31.0989 18.8767 31.0989V31.3383C18.8888 31.3383 18.9008 31.3383 18.9113 31.3383C23.7845 31.3383 27.7361 27.3869 27.7361 22.514V22.517Z" fill="#4D4D4F"/>
<path d="M18.9113 14.6233C23.271 14.6233 26.8054 18.1576 26.8054 22.517C26.8054 26.8765 23.271 30.4107 18.9113 30.4107C18.8993 30.4107 18.8873 30.4107 18.8767 30.4107V31.1004C18.8888 31.1004 18.9008 31.1004 18.9113 31.1004C23.652 31.1004 27.4951 27.2574 27.4951 22.517C27.4951 17.7766 23.652 13.9337 18.9113 13.9337C18.8993 13.9337 18.8873 13.9337 18.8767 13.9337V14.6233C18.8888 14.6233 18.9008 14.6233 18.9113 14.6233Z" fill="#58595B"/>
<path d="M26.8054 22.517C26.8054 18.1576 23.271 14.6233 18.9113 14.6233C18.8993 14.6233 18.8873 14.6233 18.8767 14.6233V30.4107C18.8888 30.4107 18.9008 30.4107 18.9113 30.4107C23.271 30.4107 26.8054 26.8764 26.8054 22.517Z" fill="#D9DADB"/>
<path d="M13.6558 27.6851H23.5437V24.4852H19.4777L24.1717 17.1261L13.6558 27.6851Z" fill="#C2181F"/>
<path d="M24.1717 17.1261H14.5367V20.326H18.2519L13.6558 27.6851L24.1717 17.1261Z" fill="#DF1C24"/>
<path d="M36.5804 11.9911L32.01 13.3163C31.9768 13.3253 31.9452 13.3389 31.9136 13.3524L32.3578 14.8839C32.391 14.8778 32.4241 14.8733 32.4587 14.8628L37.0292 13.5376C37.0623 13.5286 37.094 13.515 37.1256 13.5015L36.6813 11.97C36.6482 11.9761 36.6151 11.9806 36.5804 11.9911Z" fill="#231F20"/>
<path d="M32.3579 14.8839L31.9136 13.3524L31.7751 12.872L31.2314 13.0302L31.5115 13.9939V13.9954L31.6727 14.5556L31.6742 14.5571L31.9528 15.5208L32.4979 15.3642L32.3579 14.8839Z" fill="#3B3A3C"/>
<path d="M37.5291 12.8585V12.857L37.3665 12.2968L37.1677 11.6116L36.6226 11.7682L36.6813 11.97L37.1255 13.5015L37.1782 13.6807L37.7219 13.5226L37.5291 12.8585Z" fill="#3B3A3C"/>
<path d="M5.71208 13.3163L1.14158 11.9911C1.10845 11.9806 1.07381 11.9761 1.04068 11.97L0.596436 13.5015C0.62806 13.515 0.658179 13.5271 0.692815 13.5376L5.26331 14.8628C5.29644 14.8718 5.33108 14.8778 5.36421 14.8839L5.80845 13.3524C5.77683 13.3389 5.74671 13.3253 5.71208 13.3163Z" fill="#231F20"/>
<path d="M5.94697 12.872L5.80692 13.3524L5.36417 14.8839L5.22412 15.3642L5.76927 15.5208L6.04786 14.5556H6.04937L6.16834 14.143L6.49061 13.0302L5.94697 12.872Z" fill="#3B3A3C"/>
<path d="M0.554182 11.6116L0.355399 12.2968L0.192759 12.857V12.8585L0 13.5226L0.545146 13.6807L0.596348 13.5015L1.0406 11.97L1.09933 11.7682L0.554182 11.6116Z" fill="#3B3A3C"/>
<mask id="mask0_778_10297" style="mask-type:luminance" maskUnits="userSpaceOnUse" x="16" y="34" width="6" height="16">
<path d="M18.8287 49.151C17.6269 49.151 16.6526 48.1768 16.6526 46.9751V36.7744C16.6526 35.5728 17.6269 34.5985 18.8287 34.5985C20.0304 34.5985 21.0047 35.5728 21.0047 36.7744V46.9751C21.0047 48.1768 20.0304 49.151 18.8287 49.151Z" fill="white"/>
</mask>
<g mask="url(#mask0_778_10297)">
<path d="M18.8287 49.151C17.6269 49.151 16.6526 48.1768 16.6526 46.9751V36.7744C16.6526 35.5728 17.6269 34.5985 18.8287 34.5985C20.0304 34.5985 21.0047 35.5728 21.0047 36.7744V46.9751C21.0047 48.1768 20.0304 49.151 18.8287 49.151Z" fill="#3B3A3C"/>
<path d="M16.5427 48.874L17.9959 48.4403V49.1375L16.5427 49.5712V48.874Z" fill="#231F20"/>
<path d="M18.4885 49.005L18.1316 48.4403V49.1375L18.4885 49.7037V49.005Z" fill="#231F20"/>
<path d="M21.0694 48.874L19.6162 48.4403V49.1375L21.0694 49.5712V48.874Z" fill="#231F20"/>
<path d="M19.1238 49.005L19.4822 48.4403V49.1375L19.1238 49.7037V49.005Z" fill="#231F20"/>
<path d="M19.014 48.5532H18.5984V49.7037H19.014V48.5532Z" fill="#231F20"/>
<path d="M16.5427 48.0488L17.9959 47.6151V48.3123L16.5427 48.7475V48.0488Z" fill="#231F20"/>
<path d="M18.4885 48.1813L18.1316 47.6151V48.3123L18.4885 48.8785V48.1813Z" fill="#231F20"/>
<path d="M21.0694 48.0488L19.6162 47.6151V48.3123L21.0694 48.7475V48.0488Z" fill="#231F20"/>
<path d="M19.1238 48.1813L19.4822 47.6151V48.3123L19.1238 48.8785V48.1813Z" fill="#231F20"/>
<path d="M19.014 47.728H18.5984V48.8785H19.014V47.728Z" fill="#231F20"/>
<path d="M16.5427 47.2251L17.9959 46.7914V47.4886L16.5427 47.9223V47.2251Z" fill="#231F20"/>
<path d="M18.4885 47.3576L18.1316 46.7914V47.4886L18.4885 48.0548V47.3576Z" fill="#231F20"/>
<path d="M21.0694 47.2251L19.6162 46.7914V47.4886L21.0694 47.9223V47.2251Z" fill="#231F20"/>
<path d="M19.1238 47.3576L19.4822 46.7914V47.4886L19.1238 48.0548V47.3576Z" fill="#231F20"/>
<path d="M19.014 46.9043H18.5984V48.0548H19.014V46.9043Z" fill="#231F20"/>
<path d="M16.5427 46.4014L17.9959 45.9677V46.6649L16.5427 47.0986V46.4014Z" fill="#231F20"/>
<path d="M18.4885 46.5324L18.1316 45.9677V46.6649L18.4885 47.2311V46.5324Z" fill="#231F20"/>
<path d="M21.0694 46.4014L19.6162 45.9677V46.6649L21.0694 47.0986V46.4014Z" fill="#231F20"/>
<path d="M19.1238 46.5324L19.4822 45.9677V46.6649L19.1238 47.2311V46.5324Z" fill="#231F20"/>
<path d="M19.014 46.0806H18.5984V47.2311H19.014V46.0806Z" fill="#231F20"/>
<path d="M16.5427 45.5761L17.9959 45.1425V45.8412L16.5427 46.2749V45.5761Z" fill="#231F20"/>
<path d="M18.4885 45.7087L18.1316 45.1425V45.8412L18.4885 46.4059V45.7087Z" fill="#231F20"/>
<path d="M21.0694 45.5761L19.6162 45.1425V45.8412L21.0694 46.2749V45.5761Z" fill="#231F20"/>
<path d="M19.1238 45.7087L19.4822 45.1425V45.8412L19.1238 46.4059V45.7087Z" fill="#231F20"/>
<path d="M19.014 45.2554H18.5984V46.4059H19.014V45.2554Z" fill="#231F20"/>
<path d="M16.5427 44.7524L17.9959 44.3188V45.016L16.5427 45.4497V44.7524Z" fill="#231F20"/>
<path d="M18.4885 44.8835L18.1316 44.3188V45.016L18.4885 45.5822V44.8835Z" fill="#231F20"/>
<path d="M21.0694 44.7524L19.6162 44.3188V45.016L21.0694 45.4497V44.7524Z" fill="#231F20"/>
<path d="M19.1238 44.8835L19.4822 44.3188V45.016L19.1238 45.5822V44.8835Z" fill="#231F20"/>
<path d="M19.014 44.4317H18.5984V45.5822H19.014V44.4317Z" fill="#231F20"/>
<path d="M16.5427 43.9272L17.9959 43.4936V44.1923L16.5427 44.626V43.9272Z" fill="#231F20"/>
<path d="M18.4885 44.0598L18.1316 43.4936V44.1923L18.4885 44.7585V44.0598Z" fill="#231F20"/>
<path d="M21.0694 43.9272L19.6162 43.4936V44.1923L21.0694 44.626V43.9272Z" fill="#231F20"/>
<path d="M19.1238 44.0598L19.4822 43.4936V44.1923L19.1238 44.7585V44.0598Z" fill="#231F20"/>
<path d="M19.014 43.608H18.5984V44.7585H19.014V43.608Z" fill="#231F20"/>
<path d="M16.5427 43.1035L17.9959 42.6699V43.3686L16.5427 43.8023V43.1035Z" fill="#231F20"/>
<path d="M18.4885 43.2361L18.1316 42.6699V43.3686L18.4885 43.9333V43.2361Z" fill="#231F20"/>
<path d="M21.0694 43.1035L19.6162 42.6699V43.3686L21.0694 43.8023V43.1035Z" fill="#231F20"/>
<path d="M19.1238 43.2361L19.4822 42.6699V43.3686L19.1238 43.9333V43.2361Z" fill="#231F20"/>
<path d="M19.014 42.7828H18.5984V43.9333H19.014V42.7828Z" fill="#231F20"/>
<path d="M16.5427 42.2798L17.9959 41.8462V42.5434L16.5427 42.9771V42.2798Z" fill="#231F20"/>
<path d="M18.4885 42.4124L18.1316 41.8462V42.5434L18.4885 43.1096V42.4124Z" fill="#231F20"/>
<path d="M21.0694 42.2798L19.6162 41.8462V42.5434L21.0694 42.9771V42.2798Z" fill="#231F20"/>
<path d="M19.1238 42.4124L19.4822 41.8462V42.5434L19.1238 43.1096V42.4124Z" fill="#231F20"/>
<path d="M19.014 41.9591H18.5984V43.1096H19.014V41.9591Z" fill="#231F20"/>
<path d="M16.5427 41.4561L17.9959 41.0225V41.7197L16.5427 42.1534V41.4561Z" fill="#231F20"/>
<path d="M18.4885 41.5872L18.1316 41.0225V41.7197L18.4885 42.2859V41.5872Z" fill="#231F20"/>
<path d="M21.0694 41.4561L19.6162 41.0225V41.7197L21.0694 42.1534V41.4561Z" fill="#231F20"/>
<path d="M19.1238 41.5872L19.4822 41.0225V41.7197L19.1238 42.2859V41.5872Z" fill="#231F20"/>
<path d="M19.014 41.1354H18.5984V42.2859H19.014V41.1354Z" fill="#231F20"/>
<path d="M16.5427 40.6309L17.9959 40.1972V40.8959L16.5427 41.3296V40.6309Z" fill="#231F20"/>
<path d="M18.4885 40.7634L18.1316 40.1972V40.8959L18.4885 41.4606V40.7634Z" fill="#231F20"/>
<path d="M21.0694 40.6309L19.6162 40.1972V40.8959L21.0694 41.3296V40.6309Z" fill="#231F20"/>
<path d="M19.1238 40.7634L19.4822 40.1972V40.8959L19.1238 41.4606V40.7634Z" fill="#231F20"/>
<path d="M19.014 40.3102H18.5984V41.4606H19.014V40.3102Z" fill="#231F20"/>
<path d="M16.5427 39.8072L17.9959 39.3735V40.0707L16.5427 40.5044V39.8072Z" fill="#231F20"/>
<path d="M18.4885 39.9397L18.1316 39.3735V40.0707L18.4885 40.6369V39.9397Z" fill="#231F20"/>
<path d="M21.0694 39.8072L19.6162 39.3735V40.0707L21.0694 40.5044V39.8072Z" fill="#231F20"/>
<path d="M19.1238 39.9397L19.4822 39.3735V40.0707L19.1238 40.6369V39.9397Z" fill="#231F20"/>
<path d="M19.014 39.4865H18.5984V40.637H19.014V39.4865Z" fill="#231F20"/>
<path d="M16.5427 38.9835L17.9959 38.5498V39.247L16.5427 39.6807V38.9835Z" fill="#231F20"/>
<path d="M18.4885 39.1145L18.1316 38.5498V39.247L18.4885 39.8132V39.1145Z" fill="#231F20"/>
<path d="M21.0694 38.9835L19.6162 38.5498V39.247L21.0694 39.6807V38.9835Z" fill="#231F20"/>
<path d="M19.1238 39.1145L19.4822 38.5498V39.247L19.1238 39.8132V39.1145Z" fill="#231F20"/>
<path d="M19.014 38.6628H18.5984V39.8133H19.014V38.6628Z" fill="#231F20"/>
<path d="M16.5427 38.1583L17.9959 37.7246V38.4218L16.5427 38.857V38.1583Z" fill="#231F20"/>
<path d="M18.4885 38.2908L18.1316 37.7246V38.4218L18.4885 38.9881V38.2908Z" fill="#231F20"/>
<path d="M21.0694 38.1583L19.6162 37.7246V38.4218L21.0694 38.857V38.1583Z" fill="#231F20"/>
<path d="M19.1238 38.2908L19.4822 37.7246V38.4218L19.1238 38.9881V38.2908Z" fill="#231F20"/>
<path d="M19.014 37.8376H18.5984V38.9881H19.014V37.8376Z" fill="#231F20"/>
<path d="M16.5427 37.3346L17.9959 36.9009V37.5981L16.5427 38.0318V37.3346Z" fill="#231F20"/>
<path d="M18.4885 37.4656L18.1316 36.9009V37.5981L18.4885 38.1644V37.4656Z" fill="#231F20"/>
<path d="M21.0694 37.3346L19.6162 36.9009V37.5981L21.0694 38.0318V37.3346Z" fill="#231F20"/>
<path d="M19.1238 37.4656L19.4822 36.9009V37.5981L19.1238 38.1644V37.4656Z" fill="#231F20"/>
<path d="M19.014 37.0139H18.5984V38.1644H19.014V37.0139Z" fill="#231F20"/>
<path d="M16.5427 36.5109L17.9959 36.0772V36.7745L16.5427 37.2081V36.5109Z" fill="#231F20"/>
<path d="M18.4885 36.6419L18.1316 36.0772V36.7745L18.4885 37.3407V36.6419Z" fill="#231F20"/>
<path d="M21.0694 36.5109L19.6162 36.0772V36.7745L21.0694 37.2081V36.5109Z" fill="#231F20"/>
<path d="M19.1238 36.6419L19.4822 36.0772V36.7745L19.1238 37.3407V36.6419Z" fill="#231F20"/>
<path d="M19.014 36.1902H18.5984V37.3407H19.014V36.1902Z" fill="#231F20"/>
<path d="M16.5427 35.6857L17.9959 35.252V35.9507L16.5427 36.3844V35.6857Z" fill="#231F20"/>
<path d="M18.4885 35.8182L18.1316 35.252V35.9507L18.4885 36.5154V35.8182Z" fill="#231F20"/>
<path d="M21.0694 35.6857L19.6162 35.252V35.9507L21.0694 36.3844V35.6857Z" fill="#231F20"/>
<path d="M19.1238 35.8182L19.4822 35.252V35.9507L19.1238 36.5154V35.8182Z" fill="#231F20"/>
<path d="M19.014 35.365H18.5984V36.5154H19.014V35.365Z" fill="#231F20"/>
<path d="M16.5427 34.862L17.9959 34.4283V35.1255L16.5427 35.5592V34.862Z" fill="#231F20"/>
<path d="M18.4885 34.9945L18.1316 34.4283V35.1255L18.4885 35.6917V34.9945Z" fill="#231F20"/>
<path d="M21.0694 34.862L19.6162 34.4283V35.1255L21.0694 35.5592V34.862Z" fill="#231F20"/>
<path d="M19.1238 34.9945L19.4822 34.4283V35.1255L19.1238 35.6917V34.9945Z" fill="#231F20"/>
<path d="M19.014 34.5413H18.5984V35.6917H19.014V34.5413Z" fill="#231F20"/>
<path d="M16.5427 33.9991L17.9959 33.567V34.2642L16.5427 34.6979V33.9991Z" fill="#231F20"/>
<path d="M18.4885 34.1317L18.1316 33.567V34.2642L18.4885 34.8304V34.1317Z" fill="#231F20"/>
<path d="M21.0694 33.9991L19.6162 33.567V34.2642L21.0694 34.6979V33.9991Z" fill="#231F20"/>
<path d="M19.1238 34.1317L19.4822 33.567V34.2642L19.1238 34.8304V34.1317Z" fill="#231F20"/>
<path d="M19.014 33.6799H18.5984V34.8304H19.014V33.6799Z" fill="#231F20"/>
</g>
<path d="M38.698 24.7292L48.601 12.9474H40.606L41.2234 9.41315H53.5389L53.5103 12.8073L43.5516 24.6464H51.5752L50.9578 28.0963H38.7823L38.698 24.7307V24.7292Z" fill="#DF1C24"/>
<path d="M57.4091 9.41159H61.5338L58.2509 28.0947H54.1277L57.4106 9.41159H57.4091Z" fill="#DF1C24"/>
<path d="M67.1706 22.4011L66.1601 28.0962H62.0369L65.3198 9.41309H72.4458C76.4576 9.41309 78.3928 10.9566 78.3928 13.6204C78.3928 14.0135 78.3084 14.6023 78.2241 15.051L77.8597 17.1547C77.2422 20.6332 75.8116 22.4011 70.8737 22.4011H67.1706ZM74.0436 15.2754C74.0994 14.9381 74.128 14.658 74.128 14.4622C74.128 13.509 73.5663 13.0603 72.3043 13.0603H68.8256L67.8151 18.8397H71.2095C73.1175 18.8397 73.5376 18.1666 73.7906 16.7632L74.0436 15.2769V15.2754Z" fill="#DF1C24"/>
<path d="M83.778 22.4011L82.7676 28.0962H78.6428L81.9258 9.41309H89.0518C93.0636 9.41309 94.9987 10.9566 94.9987 13.6204C94.9987 14.0135 94.9144 14.6023 94.8301 15.051L94.4656 17.1547C93.8482 20.6332 92.4176 22.4011 87.4796 22.4011H83.7765H83.778ZM90.6511 15.2754C90.7068 14.9381 90.7354 14.658 90.7354 14.4622C90.7354 13.509 90.1752 13.0603 88.9117 13.0603H85.4331L84.4226 18.8397H87.8169C89.725 18.8397 90.1451 18.1666 90.3981 16.7632L90.6511 15.2769V15.2754Z" fill="#DF1C24"/>
<path d="M38.6121 37.3347C38.6121 35.7249 39.3123 34.8154 40.9086 34.8154C41.4688 34.8154 42.1826 34.8997 42.6449 35.0111V32.1696L44.6614 31.8895V41.7724H43.0802L42.8693 41.2258C42.3935 41.5345 41.511 41.9125 40.7701 41.9125C39.3846 41.9125 38.6151 41.0586 38.6151 39.3932V37.3362L38.6121 37.3347ZM42.6434 36.7323C42.2941 36.648 41.776 36.5652 41.3559 36.5652C40.8243 36.5652 40.6285 36.8874 40.6285 37.3347V39.3917C40.6285 39.8675 40.8243 40.1611 41.3559 40.1611C41.8182 40.1611 42.3498 39.8811 42.6434 39.6296V36.7323Z" fill="white"/>
<path d="M48.1446 39.0694V39.2651C48.1446 40.0497 48.4533 40.259 49.3764 40.259C50.0059 40.259 50.8462 40.1476 51.4486 39.9653L51.7422 41.4772C51.1263 41.7016 50.1324 41.9109 49.1806 41.9109C46.9684 41.9109 46.1296 40.8192 46.1296 39.1386V37.5424C46.1296 36.0727 46.7877 34.8123 49.0557 34.8123C51.3236 34.8123 51.813 36.1555 51.813 37.6403V39.0679H48.1446V39.0694ZM49.908 37.2638C49.908 36.788 49.768 36.3965 49.0677 36.3965C48.3674 36.3965 48.1431 36.788 48.1431 37.2638V37.5575H49.9065V37.2638H49.908Z" fill="white"/>
<path d="M53.2812 41.7709V32.168L55.2977 31.8879V41.7709H53.2812Z" fill="white"/>
<path d="M57.1169 34.1V31.9587H59.1334V34.1H57.1169ZM57.1169 41.7709V34.9539H59.1334V41.7709H57.1169Z" fill="white"/>
<path d="M64.8289 41.7709H62.2537L60.1123 34.9539H62.1558L63.5413 39.7831L64.9268 34.9539H66.9703L64.8289 41.7709Z" fill="white"/>
<path d="M69.616 39.0694V39.2651C69.616 40.0497 69.9247 40.259 70.8479 40.259C71.4773 40.259 72.3176 40.1476 72.92 39.9653L73.2137 41.4772C72.5977 41.7016 71.6038 41.9109 70.6521 41.9109C68.4399 41.9109 67.6011 40.8192 67.6011 39.1386V37.5424C67.6011 36.0727 68.2592 34.8123 70.5271 34.8123C72.795 34.8123 73.2845 36.1555 73.2845 37.6403V39.0679H69.616V39.0694ZM71.3794 37.2638C71.3794 36.788 71.2394 36.3965 70.5391 36.3965C69.8389 36.3965 69.6145 36.788 69.6145 37.2638V37.5575H71.3779V37.2638H71.3794Z" fill="white"/>
<path d="M76.7694 37.6132V41.7709H74.7529V34.9539H76.4335L76.5736 35.6119C76.9938 35.3318 77.8612 34.9252 78.4078 34.8138L78.575 36.7172C77.9726 36.9551 77.2031 37.3045 76.7694 37.6132Z" fill="white"/>
<path d="M79.5823 34.1V31.9587H81.5987V34.1H79.5823ZM79.5823 41.7709V34.9539H81.5987V41.7709H79.5823Z" fill="white"/>
<path d="M85.0836 39.0694V39.2651C85.0836 40.0497 85.3923 40.259 86.3154 40.259C86.9449 40.259 87.7852 40.1476 88.3876 39.9653L88.6812 41.4772C88.0653 41.7016 87.0714 41.9109 86.1197 41.9109C83.9074 41.9109 83.0671 40.8192 83.0671 39.1386V37.5424C83.0671 36.0727 83.7252 34.8123 85.9932 34.8123C88.2611 34.8123 88.7505 36.1555 88.7505 37.6403V39.0679H85.0821L85.0836 39.0694ZM86.847 37.2638C86.847 36.788 86.707 36.3965 86.0067 36.3965C85.3065 36.3965 85.0836 36.788 85.0836 37.2638V37.5575H86.847V37.2638Z" fill="white"/>
<path d="M92.3496 41.9109C91.6072 41.9109 90.544 41.7287 89.8708 41.5043L90.1931 40.006C90.7533 40.1747 91.4942 40.3147 92.2502 40.3147C92.8526 40.3147 92.9505 40.1475 92.9505 39.741C92.9505 39.3073 92.9369 39.2516 91.8451 38.985C90.1931 38.5784 90.0395 38.1312 90.0395 36.8573C90.0395 35.4162 90.5997 34.8138 92.6433 34.8138C93.1613 34.8138 94.113 34.8831 94.7154 35.0382L94.5332 36.6058C93.9308 36.4943 93.1884 36.41 92.6568 36.41C92.0695 36.41 91.9295 36.5636 91.9295 36.8723C91.9295 37.2924 91.9852 37.3482 92.7969 37.5304C94.7425 37.9641 94.8826 38.3842 94.8826 39.7425C94.8826 41.1007 94.2938 41.9124 92.3481 41.9124L92.3496 41.9109Z" fill="white"/>
</svg>
