<svg width="176" height="98" viewBox="0 0 176 98" fill="none" xmlns="http://www.w3.org/2000/svg">
<path d="M34.8747 92.9373C26.7476 92.9373 20.1587 91.7934 20.1587 90.3764C20.1587 88.9595 26.7476 87.8156 34.8747 87.8156C43.0017 87.8156 49.5832 88.9595 49.5832 90.3764" fill="#D9DADB"/>
<path d="M47.0985 12.8857L34.8968 11.0406L22.7025 12.8857L34.8968 15.299L47.0985 12.8857Z" fill="#E1C080"/>
<path d="M34.8968 15.2989L22.7025 12.8856V22.6273C26.2447 20.4207 30.4228 19.1365 34.8968 19.1218V15.3063V15.2989Z" fill="#D5AD6F"/>
<path d="M34.8969 19.1145C34.8969 19.1145 34.9486 19.1145 34.9782 19.1145C39.4152 19.1145 43.5637 20.3617 47.0911 22.5241V12.8931L34.8969 15.3064V19.1218V19.1145Z" fill="#C49F67"/>
<path d="M3.20203 10.1624C4.31867 11.2915 5.89379 12 7.63161 12C8.87396 12 10.035 11.6384 11.0037 11.0185L7.9348 6.81921C6.66287 7.71958 3.95631 9.60888 3.20203 10.1624Z" fill="#737373"/>
<path d="M13.7916 6C13.7916 2.68635 11.0332 0 7.63157 0C6.50014 0 5.44266 0.302583 4.53308 0.826568L11.6396 10.5535C12.9559 9.45387 13.7916 7.82288 13.7916 6Z" fill="#737373"/>
<path d="M3.87492 1.25464C3.57173 1.48342 3.29072 1.73434 3.03929 2.01479C2.27021 2.88564 1.72299 3.98527 1.54551 5.16608C1.54551 5.21036 1.53072 5.25464 1.52332 5.29892C1.51593 5.36534 1.50853 5.42438 1.50114 5.4908C1.48635 5.66054 1.47156 5.8229 1.47156 5.99265C1.47156 6.19929 1.47895 6.39855 1.50114 6.59781C1.50853 6.67161 1.52332 6.74541 1.53811 6.82659C1.5529 6.94468 1.56769 7.07014 1.59727 7.18822C1.61946 7.28416 1.64904 7.37272 1.67122 7.46866C1.69341 7.5646 1.71559 7.66054 1.74517 7.75648C1.77475 7.85981 1.81912 7.96313 1.8561 8.06645C1.88568 8.14763 1.91526 8.22881 1.94483 8.30261C1.9892 8.41331 2.04836 8.51663 2.10013 8.61995C2.12971 8.68637 2.16668 8.75279 2.19626 8.81921C2.25542 8.92992 2.32198 9.03324 2.38853 9.13656C2.42551 9.1956 2.45509 9.25464 2.49946 9.3063C2.57341 9.40962 2.64736 9.51294 2.72131 9.60888C2.75828 9.66054 2.79525 9.7122 2.83962 9.76386C2.92097 9.85981 3.00231 9.94837 3.09105 10.0443C3.12803 10.0812 3.165 10.1255 3.20198 10.1624C3.96366 9.61626 6.66282 7.72696 7.93475 6.81921L3.87492 1.25464Z" fill="#474747"/>
<path d="M4.53304 0.826544L4.34077 0.568241C4.21506 0.391119 3.96363 0.354219 3.79354 0.47968C3.61607 0.605142 3.57909 0.856064 3.70481 1.02581L3.87489 1.25459C3.87489 1.25459 3.88968 1.24721 3.88968 1.23983C4.09674 1.08485 4.31119 0.952005 4.53304 0.826544Z" fill="#B3B3B3"/>
<path d="M19.9368 22.738C19.9368 21.5498 19.1085 20.6937 18.9237 20.5239L11.6396 10.5535C11.44 10.7232 11.2255 10.8782 11.0037 11.0184L18.3025 21.011C18.3025 21.011 18.3395 21.0553 18.3616 21.0775C18.3616 21.0775 19.1455 21.7859 19.1455 22.738C19.1455 23.4465 18.761 25.1513 18.4948 26.2509C18.761 26.2878 19.0198 26.3247 19.2786 26.3542C19.5522 25.2103 19.9294 23.5055 19.9294 22.738H19.9368Z" fill="#B3B3B3"/>
<path d="M4.53301 0.826538C4.31116 0.951999 4.09671 1.09222 3.88965 1.23982C4.79183 2.08853 7.46881 5.59407 8.33402 6.53872C8.23049 6.61252 8.08998 6.70846 7.93469 6.81916L11.0036 11.0184C11.2254 10.8782 11.4325 10.7232 11.6396 10.5535L4.53301 0.826538Z" fill="#B3B3B3"/>
<path d="M8.33404 6.54609C7.46883 5.60144 4.79185 2.0959 3.88967 1.24719C3.88967 1.24719 3.87488 1.25457 3.87488 1.26195L7.9421 6.82653C8.0974 6.71583 8.23051 6.61989 8.34143 6.54609H8.33404Z" fill="#B3B3B3"/>
<path d="M62.2507 0C58.849 0 56.0907 2.68635 56.0907 6C56.0907 7.82288 56.9263 9.45387 58.2426 10.5535L65.3492 0.826568C64.4396 0.302583 63.3821 0 62.2507 0Z" fill="#737373"/>
<path d="M58.8786 11.0185C59.8474 11.6384 61.0084 12 62.2507 12C63.9885 12 65.5637 11.2915 66.6803 10.1624C65.9186 9.61626 63.2195 7.72696 61.9401 6.81921L58.8712 11.0185H58.8786Z" fill="#737373"/>
<path d="M68.3812 5.49813C68.3812 5.43908 68.3738 5.37266 68.3664 5.31362C68.3516 5.22506 68.3368 5.12912 68.322 5.04056C68.1963 4.33207 67.9449 3.65311 67.5899 3.0258C67.1832 2.33945 66.6434 1.74167 66.0074 1.26196L61.9402 6.82654C63.2195 7.72691 65.9187 9.61621 66.6804 10.1697C66.7173 10.1328 66.7543 10.0959 66.7839 10.059C66.8726 9.96307 66.9614 9.87451 67.0427 9.77119C67.0797 9.71953 67.1167 9.66787 67.1536 9.62359C67.235 9.52027 67.3089 9.42432 67.3829 9.31362C67.4198 9.26196 67.4494 9.20292 67.4864 9.14388C67.553 9.04056 67.6195 8.93724 67.6787 8.82654C67.7156 8.76012 67.7452 8.6937 67.7748 8.62728C67.8266 8.52396 67.8857 8.41326 67.9301 8.30993C67.9597 8.23613 67.9893 8.15495 68.0188 8.07377C68.0558 7.97045 68.1002 7.86713 68.1298 7.76381C68.1593 7.66787 68.1815 7.57193 68.2037 7.47599C68.2259 7.38004 68.2555 7.29148 68.2777 7.19554C68.2998 7.07746 68.3146 6.952 68.3368 6.83392C68.3442 6.76012 68.3664 6.68632 68.3738 6.60514C68.396 6.40587 68.4034 6.20661 68.4034 5.99997C68.4034 5.83023 68.3886 5.66049 68.3738 5.49075L68.3812 5.49813Z" fill="#474747"/>
<path d="M50.966 20.5239C50.7811 20.7011 49.9529 21.5498 49.9529 22.738C49.9529 23.5129 50.33 25.2177 50.6036 26.3542C50.8625 26.3247 51.1213 26.2878 51.3875 26.2509C51.1213 25.1439 50.7367 23.4465 50.7367 22.738C50.7367 21.7859 51.5132 21.0848 51.5206 21.0775C51.5428 21.0553 51.5576 21.0406 51.5798 21.011L58.8786 11.0184C58.6567 10.8782 58.4497 10.7232 58.25 10.5535L50.966 20.5239Z" fill="#B3B3B3"/>
<path d="M66.0074 1.26203L66.1775 1.03325C66.3032 0.85613 66.2662 0.612588 66.0887 0.487127C65.9113 0.361665 65.6672 0.398566 65.5415 0.575688L65.3492 0.83399C65.5563 0.952071 65.7634 1.08491 65.9556 1.22513C65.9704 1.23989 65.9852 1.25465 66.0074 1.26203Z" fill="#B3B3B3"/>
<path d="M61.5482 6.54616C62.3986 5.60889 65.0312 2.11812 65.9629 1.22513C65.7707 1.08491 65.5636 0.952066 65.3566 0.833984L58.25 10.5609C58.4497 10.7307 58.6641 10.8856 58.8786 11.0259L61.9475 6.8266C61.7922 6.7159 61.6591 6.61996 61.5555 6.54616H61.5482Z" fill="#B3B3B3"/>
<path d="M61.5482 6.54613C61.6517 6.61993 61.7922 6.71587 61.9401 6.82657L66.0073 1.262C66.0073 1.262 65.9777 1.23248 65.9556 1.2251C65.0238 2.11809 62.3986 5.60886 61.5408 6.54613H61.5482Z" fill="#B3B3B3"/>
<path d="M17.2968 53.3432C17.1045 52.9816 16.927 52.6199 16.7569 52.2731C15.9879 56.8413 15.3963 61.9114 15.7734 65.4022H16.328C15.9805 62.1771 16.5351 57.6162 17.3042 53.3432H17.2968Z" fill="#CCCCCC"/>
<path d="M22.7617 62.118C22.1701 61.2989 21.6154 60.4944 21.0978 59.7269C20.4396 58.7454 19.8407 57.8007 19.2934 56.893C19.1603 56.6716 19.0272 56.4502 18.9015 56.2288C18.3025 55.2177 17.7775 54.2509 17.3042 53.3431C16.5351 57.6162 15.9879 62.1771 16.3281 65.4022H22.88C22.8652 65.2546 22.8578 65.107 22.843 64.9446C22.7839 64.0885 22.7617 63.1365 22.7691 62.1107L22.7617 62.118Z" fill="#B3B3B3"/>
<path d="M17.489 71.7638C17.489 71.7638 17.0009 71.4686 16.328 65.476C16.328 65.4464 16.328 65.4243 16.3206 65.3948H15.766C15.766 65.3948 15.766 65.4464 15.7734 65.476C16.4463 71.4686 17.0453 71.7638 17.0453 71.7638C17.0453 71.7638 19.9589 76.1254 25.3351 78.273C19.9589 76.1254 17.489 71.7638 17.489 71.7638Z" fill="#BFBFBF"/>
<path d="M53.4507 65.4022H54.0053C54.3751 61.9704 53.813 57.0258 53.0588 52.5239C52.8887 52.8708 52.7038 53.225 52.5189 53.5867C53.2658 57.7859 53.7909 62.2435 53.4507 65.4022Z" fill="#CCCCCC"/>
<path d="M49.9898 57.9483C49.3539 58.9594 48.6588 60.0073 47.8897 61.107C47.6604 61.4391 47.4312 61.7638 47.1872 62.1033C47.128 62.1845 47.0688 62.2656 47.0097 62.3542C47.0097 63.2841 46.9875 64.1549 46.9283 64.9446C46.9209 65.0996 46.9061 65.2546 46.8914 65.4022H53.4433C53.7835 62.2435 53.2584 57.7859 52.5115 53.5867C51.9643 54.6199 51.3505 55.7269 50.6406 56.8929C50.4335 57.2398 50.2117 57.594 49.9824 57.9557L49.9898 57.9483Z" fill="#B3B3B3"/>
<path d="M25.1354 65.2768C24.285 64.1845 23.4937 63.1365 22.7616 62.1107C22.7542 63.1292 22.7764 64.0886 22.8356 64.9447C22.8504 65.0996 22.8578 65.2546 22.8726 65.4022H25.2315C25.202 65.3653 25.165 65.321 25.1354 65.2841V65.2768Z" fill="#262626"/>
<path d="M47.0097 62.3542C46.6918 62.7971 46.359 63.2472 46.0114 63.7048C45.76 64.0369 45.516 64.369 45.2497 64.7085C45.0723 64.9373 44.8874 65.1734 44.7025 65.4022H46.8914C46.9062 65.2546 46.9136 65.107 46.9284 64.9447C46.9876 64.155 47.0097 63.2841 47.0097 62.3542Z" fill="#262626"/>
<path d="M53.4433 65.476C52.7704 71.4686 52.2823 71.7638 52.2823 71.7638C52.2823 71.7638 49.8124 76.1254 44.4363 78.273C49.8124 76.1254 52.726 71.7638 52.726 71.7638C52.726 71.7638 53.325 71.4686 53.998 65.476C53.998 65.4464 53.998 65.4243 54.0054 65.3948H53.4507C53.4507 65.3948 53.4507 65.4464 53.4433 65.476Z" fill="#BFBFBF"/>
<path d="M52.2823 71.7638C52.2823 71.7638 52.7704 71.4686 53.4433 65.476C53.4433 65.4464 53.4433 65.4243 53.4507 65.3948H46.8988C46.4921 70.8117 46.1297 71.0922 46.1297 71.0922C46.1297 71.0922 44.2958 75.3579 40.9015 77.4538C40.6944 77.5793 40.4948 77.6974 40.2951 77.8081C40.2212 77.845 40.1546 77.8819 40.0806 77.9188C39.9549 77.9852 39.8292 78.0516 39.7109 78.1106C39.6222 78.1549 39.5408 78.1918 39.4595 78.2287C39.3559 78.2804 39.2524 78.332 39.1489 78.3763C39.0601 78.4206 38.9714 78.4501 38.8753 78.4944C38.7865 78.5313 38.6978 78.5756 38.609 78.6051C38.5129 78.642 38.4242 78.6715 38.3354 78.7084C38.2541 78.738 38.1727 78.7675 38.0988 78.797C38.0027 78.8265 37.9139 78.856 37.8252 78.8856C37.7512 78.9077 37.6847 78.9298 37.6181 78.952C37.5294 78.9815 37.4406 79.0036 37.3519 79.0258C37.2927 79.0405 37.2262 79.0627 37.167 79.0774C37.0783 79.0996 36.9969 79.1217 36.9082 79.1439C36.8564 79.1586 36.7973 79.1734 36.7455 79.1808C36.6642 79.2029 36.5828 79.2177 36.5015 79.2324C36.4571 79.2398 36.4054 79.2546 36.361 79.2619C36.2796 79.2767 36.2057 79.2915 36.1317 79.2988C36.0948 79.2988 36.0504 79.3136 36.0134 79.321C35.9395 79.3357 35.8729 79.3431 35.8064 79.3505C35.7768 79.3505 35.7398 79.3579 35.7102 79.3653C35.6437 79.3726 35.5845 79.38 35.5254 79.3874C35.5032 79.3874 35.4736 79.3874 35.4514 79.3874C35.3922 79.3874 35.3405 79.3948 35.2961 79.3948C35.2739 79.3948 35.2591 79.3948 35.2369 79.3948C35.1926 79.3948 35.1482 79.3948 35.1112 79.3948C35.0964 79.3948 35.0817 79.3948 35.0669 79.3948C35.0299 79.3948 35.0003 79.3948 34.9707 79.3948H34.9485C34.9485 79.3948 34.8968 79.3948 34.8894 79.3948H34.8598C34.8598 79.3948 34.8302 79.3948 34.8006 79.3948H34.7785C34.7785 79.3948 34.7193 79.3948 34.6823 79.3948C34.6675 79.3948 34.6527 79.3948 34.638 79.3948C34.601 79.3948 34.5566 79.3948 34.5122 79.3948C34.4975 79.3948 34.4753 79.3948 34.4531 79.3948C34.4013 79.3948 34.3569 79.3948 34.2978 79.3874C34.2756 79.3874 34.246 79.3874 34.2238 79.3874C34.1647 79.3874 34.1055 79.3726 34.039 79.3653C34.0094 79.3653 33.9724 79.3579 33.9428 79.3505C33.8763 79.3431 33.8097 79.3357 33.7358 79.321C33.6988 79.321 33.6544 79.3062 33.6175 79.2988C33.5435 79.2841 33.4696 79.2767 33.3956 79.2619C33.3512 79.2546 33.2995 79.2398 33.2551 79.2324C33.1738 79.2177 33.0998 79.2029 33.0111 79.1808C32.9593 79.166 32.9001 79.1586 32.8484 79.1439C32.767 79.1217 32.6783 79.107 32.5896 79.0848C32.5304 79.0701 32.4638 79.0479 32.4047 79.0331C32.3159 79.011 32.2272 78.9815 32.1385 78.9593C32.0719 78.9372 31.998 78.9151 31.924 78.8929C31.8353 78.8634 31.7465 78.8339 31.6578 78.8044C31.5764 78.7748 31.4951 78.7453 31.4138 78.7158C31.325 78.6789 31.2363 78.6494 31.1401 78.6125C31.0514 78.5756 30.9627 78.5387 30.8739 78.5018C30.7852 78.4649 30.6964 78.428 30.6003 78.3837C30.4968 78.3394 30.3933 78.2878 30.2971 78.2361C30.2084 78.1992 30.127 78.1549 30.0383 78.118C29.92 78.059 29.7943 77.9852 29.6685 77.9188C29.5946 77.8819 29.528 77.845 29.4541 77.8081C29.2544 77.6974 29.0548 77.5793 28.8477 77.4538C25.4534 75.3579 23.6195 71.0922 23.6195 71.0922C23.6195 71.0922 23.2645 70.8191 22.8504 65.3948H16.2985C16.2985 65.3948 16.2985 65.4464 16.3059 65.476C16.9788 71.4686 17.4669 71.7638 17.4669 71.7638C17.4669 71.7638 19.9368 76.1254 25.3129 78.273C30.5264 80.3542 34.6084 80.2804 34.8598 80.273C35.1112 80.273 39.2006 80.3542 44.4067 78.273C49.7828 76.1254 52.2528 71.7638 52.2528 71.7638H52.2823Z" fill="#999999"/>
<path d="M35.5328 75.8155C35.3479 76.0073 35.163 76.1992 34.9782 76.3911C34.8155 76.2287 34.6602 76.0664 34.4975 75.904C34.1203 75.5202 33.7654 75.1439 33.403 74.7675C31.5173 72.797 29.7943 70.9003 28.2487 69.0922C27.1617 67.8228 26.1708 66.5977 25.239 65.4095H22.88C23.2867 70.8265 23.6491 71.107 23.6491 71.107C23.6491 71.107 25.483 75.3726 28.8773 77.4686C29.0844 77.5941 29.284 77.7121 29.4837 77.8228C29.5577 77.8597 29.6242 77.8966 29.6982 77.9335C29.8239 78 29.9496 78.0664 30.0679 78.1328C30.1566 78.1771 30.238 78.214 30.3267 78.2509C30.4303 78.3025 30.5338 78.3542 30.6299 78.3985C30.7187 78.4428 30.8074 78.4723 30.9035 78.5166C30.9923 78.5535 31.081 78.5977 31.1698 78.6273C31.2585 78.6642 31.3472 78.6937 31.4434 78.7306C31.5247 78.7601 31.6061 78.7896 31.6874 78.8191C31.7761 78.8487 31.8649 78.8782 31.9536 78.9077C32.0276 78.9298 32.0941 78.952 32.1681 78.9741C32.2568 79.0036 32.3456 79.0258 32.4343 79.0479C32.4935 79.0627 32.56 79.0848 32.6192 79.0996C32.7079 79.1217 32.7892 79.1439 32.878 79.1586C32.9298 79.1734 32.9889 79.1881 33.0407 79.1955C33.122 79.2177 33.2034 79.2324 33.2847 79.2472C33.3291 79.2546 33.3808 79.2693 33.4252 79.2767C33.5066 79.2915 33.5805 79.3062 33.6471 79.3136C33.684 79.3136 33.7284 79.3284 33.7654 79.3357C33.8393 79.3505 33.9059 79.3579 33.9724 79.3653C34.002 79.3653 34.039 79.3726 34.0686 79.38C34.1351 79.3874 34.1943 79.3948 34.2534 79.4022C34.283 79.4022 34.3052 79.4022 34.3274 79.4022C34.3866 79.4022 34.4383 79.4095 34.4827 79.4095C34.5049 79.4095 34.5197 79.4095 34.5419 79.4095C34.5862 79.4095 34.6306 79.4095 34.6676 79.4095C34.6824 79.4095 34.6971 79.4095 34.7119 79.4095C34.7489 79.4095 34.7785 79.4095 34.8081 79.4095H34.8303C34.8303 79.4095 34.882 79.4095 34.8894 79.4095C34.8894 79.4095 34.8968 79.4095 34.9042 79.4095H34.919C34.9338 79.4095 34.956 79.4095 34.9782 79.4095H35.0003C35.0003 79.4095 35.0595 79.4095 35.0965 79.4095C35.1113 79.4095 35.1261 79.4095 35.1408 79.4095C35.1778 79.4095 35.2222 79.4095 35.2666 79.4095C35.2813 79.4095 35.3035 79.4095 35.3257 79.4095C35.3775 79.4095 35.4292 79.4095 35.481 79.4022C35.5032 79.4022 35.5328 79.4022 35.555 79.4022C35.6141 79.4022 35.6733 79.3874 35.7398 79.38C35.7694 79.38 35.8064 79.3726 35.836 79.3653C35.9025 79.3579 35.9691 79.3505 36.043 79.3357C36.08 79.3357 36.1244 79.321 36.1614 79.3136C36.2353 79.2988 36.3092 79.2915 36.3906 79.2767C36.435 79.2693 36.4793 79.2619 36.5311 79.2472C36.6124 79.2324 36.6938 79.2177 36.7751 79.1955C36.8269 79.1808 36.8787 79.1734 36.9378 79.1586C37.0192 79.1365 37.1079 79.1217 37.1966 79.0922C37.2558 79.0774 37.3224 79.0553 37.3815 79.0405C37.4703 79.0184 37.559 78.9889 37.6477 78.9667C37.7143 78.9446 37.7882 78.9225 37.8548 78.9003C37.9435 78.8708 38.0323 78.8413 38.1284 78.8118C38.2098 78.7822 38.2911 78.7527 38.365 78.7232C38.4538 78.6863 38.5425 78.6568 38.6387 78.6199C38.7274 78.583 38.8161 78.5461 38.9049 78.5092C38.9936 78.4723 39.0824 78.4354 39.1785 78.3911C39.282 78.3468 39.3856 78.2952 39.4891 78.2435C39.5778 78.2066 39.6592 78.1623 39.7405 78.1254C39.8588 78.0664 39.9845 78 40.1103 77.9335C40.1842 77.8966 40.2508 77.8597 40.3247 77.8228C40.5244 77.7121 40.724 77.5941 40.9311 77.4686C44.3254 75.3726 46.1593 71.107 46.1593 71.107C46.1593 71.107 46.5143 70.8339 46.9284 65.4095H44.7395C42.2474 68.5904 39.2229 72.0664 35.555 75.8228L35.5328 75.8155Z" fill="#404040"/>
<path d="M38.1061 78.8044C38.0174 78.834 37.9213 78.8635 37.8325 78.893C37.9213 78.8635 38.01 78.834 38.1061 78.8044Z" fill="#404040"/>
<path d="M30.3119 78.2436C30.2232 78.2067 30.1418 78.1624 30.0531 78.1255C30.1418 78.1698 30.2232 78.2067 30.3119 78.2436Z" fill="#404040"/>
<path d="M37.6255 78.9668C37.5367 78.9963 37.448 79.0185 37.3593 79.0406C37.448 79.0185 37.5367 78.9889 37.6255 78.9668Z" fill="#404040"/>
<path d="M37.1744 79.0923C37.0856 79.1144 37.0043 79.1366 36.9155 79.1587C36.9969 79.1366 37.0856 79.1218 37.1744 79.0923Z" fill="#404040"/>
<path d="M31.9388 78.893C31.8501 78.8635 31.7613 78.834 31.6726 78.8044C31.7687 78.834 31.8501 78.8635 31.9388 78.893Z" fill="#404040"/>
<path d="M33.6248 79.3063C33.5509 79.2915 33.4769 79.2842 33.403 79.2694C33.4843 79.2842 33.5583 79.2989 33.6248 79.3063Z" fill="#404040"/>
<path d="M39.1563 78.3911C39.0676 78.4354 38.9788 78.4649 38.8827 78.5092C38.9714 78.4723 39.0602 78.4354 39.1563 78.3911Z" fill="#404040"/>
<path d="M31.4285 78.7159C31.3398 78.679 31.251 78.6494 31.1549 78.6125C31.2436 78.6494 31.3324 78.679 31.4285 78.7159Z" fill="#404040"/>
<path d="M33.2625 79.2399C33.1811 79.2251 33.1072 79.2104 33.0184 79.1882C33.0998 79.2104 33.1811 79.2251 33.2625 79.2399Z" fill="#404040"/>
<path d="M39.7182 78.1255C39.6295 78.1698 39.5481 78.2067 39.4668 78.2436C39.5555 78.2067 39.6369 78.1624 39.7182 78.1255Z" fill="#404040"/>
<path d="M32.8557 79.1513C32.7744 79.1292 32.6857 79.1144 32.5969 79.0923C32.6857 79.1144 32.767 79.1366 32.8557 79.1513Z" fill="#404040"/>
<path d="M30.8887 78.5019C30.8 78.465 30.7112 78.4281 30.6151 78.3838C30.7039 78.4281 30.7926 78.4576 30.8887 78.5019Z" fill="#404040"/>
<path d="M32.4194 79.0406C32.3307 79.0185 32.2419 78.9889 32.1532 78.9668C32.2419 78.9963 32.3307 79.0185 32.4194 79.0406Z" fill="#404040"/>
<path d="M36.3757 79.2694C36.2944 79.2842 36.2204 79.2989 36.1465 79.3063C36.2204 79.2915 36.2944 79.2842 36.3757 79.2694Z" fill="#404040"/>
<path d="M34.2313 79.3875C34.1721 79.3875 34.1129 79.3727 34.0464 79.3654C34.1129 79.3727 34.1721 79.3801 34.2313 79.3875Z" fill="#404040"/>
<path d="M35.725 79.3654C35.6585 79.3727 35.5993 79.3801 35.5402 79.3875C35.5993 79.3875 35.6585 79.3727 35.725 79.3654Z" fill="#404040"/>
<path d="M34.4679 79.4022C34.4162 79.4022 34.3644 79.4022 34.3126 79.3948C34.3718 79.3948 34.4235 79.4022 34.4679 79.4022Z" fill="#404040"/>
<path d="M35.4662 79.3948C35.407 79.3948 35.3553 79.4022 35.3109 79.4022C35.3627 79.4022 35.4144 79.4022 35.4662 79.3948Z" fill="#404040"/>
<path d="M18.6871 41.631C18.6871 32.642 25.9711 25.3505 34.9708 25.3136V20.8265C33.1147 20.8265 31.3177 21.0627 29.6021 21.4981C27.0138 22.1623 24.6253 23.2989 22.5103 24.8044C21.793 25.3136 21.1126 25.8745 20.4619 26.4649C16.6313 26.1845 11.1221 24.7085 11.1221 24.7085L10.6636 27.6014C12.2979 27.8819 14.1318 29.0848 16.8088 30.8339C16.5204 31.2915 16.2394 31.7638 15.9805 32.2435C14.7678 34.5387 13.9543 37.0775 13.6437 39.7712C13.5476 40.583 13.4958 41.4022 13.4958 42.2361C13.4958 42.4944 13.7103 47.4169 18.8942 56.2066C19.0273 56.428 19.153 56.6494 19.2861 56.8708C19.8333 57.7712 20.4323 58.7158 21.0905 59.7048C22.2515 61.4391 23.59 63.2915 25.1281 65.262C26.0895 66.4871 27.1174 67.7491 28.234 69.0627C29.7795 70.8708 31.5026 72.7675 33.3883 74.738C33.7506 75.1144 34.1056 75.4907 34.4827 75.8745C34.6454 76.0369 34.8007 76.1992 34.9634 76.3616V57.9262C25.9637 57.8893 18.6797 50.5978 18.6797 41.6088L18.6871 41.631Z" fill="#DF1C24"/>
<path d="M55.8246 37.1438C55.6989 36.6198 55.5436 36.1106 55.3809 35.6014C55.2848 35.2988 55.1738 35.0036 55.0629 34.7084C54.5453 33.3431 53.8945 32.0442 53.1254 30.8265C55.7802 29.0922 57.6068 27.904 59.2337 27.6161L58.7752 24.7232C58.7752 24.7232 53.3177 26.1844 49.4871 26.4722C48.8216 25.8671 48.1264 25.2914 47.3869 24.7748C47.0837 24.5608 46.7806 24.3542 46.47 24.1623C44.9022 23.166 43.1866 22.3837 41.3822 21.8154C40.4431 21.5202 39.4743 21.2914 38.4834 21.1291C37.3446 20.9446 36.1836 20.8339 34.9856 20.8339V25.3209C34.9856 25.3209 35.03 25.3209 35.0522 25.3209C44.0814 25.3209 51.4024 32.6272 51.4024 41.6383C51.4024 50.6494 44.0814 57.9556 35.0522 57.9556C35.03 57.9556 35.0078 57.9556 34.9856 57.9556V76.3911C35.1779 76.1992 35.3553 76.0073 35.5402 75.8154C39.4743 71.7859 42.6764 68.0737 45.2646 64.7084C45.5234 64.3689 45.7748 64.0368 46.0263 63.7047C46.433 63.166 46.8249 62.6272 47.2021 62.1106C47.4461 61.7711 47.6753 61.4464 47.9046 61.1143C48.6663 60.0147 49.3688 58.9593 50.0048 57.9556C50.234 57.594 50.4485 57.2398 50.6629 56.8929C52.4747 53.904 53.717 51.3431 54.5748 49.2324C54.8632 48.5239 55.1073 47.8671 55.3143 47.2619C56.3866 44.1328 56.4532 42.4132 56.4606 42.2656C56.4606 41.5276 56.4162 40.8043 56.3422 40.0959C56.2387 39.0922 56.076 38.1032 55.8394 37.1438H55.8246Z" fill="#C2181F"/>
<path d="M19.1307 41.6309C19.1307 32.8856 26.2151 25.7933 34.9707 25.7564V25.3136C25.971 25.3505 18.687 32.642 18.687 41.6309C18.687 50.6199 25.971 57.9114 34.9707 57.9483V57.5055C26.2151 57.4686 19.1307 50.3763 19.1307 41.6309Z" fill="#77787B"/>
<path d="M19.1307 41.6309C19.1307 50.3763 26.2151 57.4685 34.9707 57.5054V56.2287C26.925 56.1918 20.4101 49.6752 20.4101 41.6309C20.4101 33.5866 26.925 27.07 34.9707 27.0331V25.7563C26.2151 25.7932 19.1307 32.8855 19.1307 41.6309Z" fill="#808080"/>
<path d="M20.41 41.6309C20.41 49.6678 26.925 56.1918 34.9707 56.2287V27.0405C26.925 27.0774 20.41 33.594 20.41 41.6383V41.6309Z" fill="white"/>
<path d="M51.3875 41.6309C51.3875 32.6199 44.0665 25.3136 35.0373 25.3136C35.0151 25.3136 34.9929 25.3136 34.9707 25.3136V25.7564C34.9707 25.7564 35.0151 25.7564 35.0373 25.7564C43.8225 25.7564 50.9438 32.8634 50.9438 41.6309C50.9438 50.3985 43.8225 57.5055 35.0373 57.5055C35.0151 57.5055 34.9929 57.5055 34.9707 57.5055V57.9483C34.9707 57.9483 35.0151 57.9483 35.0373 57.9483C44.0665 57.9483 51.3875 50.642 51.3875 41.6309Z" fill="#4D4D4F"/>
<path d="M35.0373 27.0405C43.1126 27.0405 49.6645 33.5719 49.6645 41.6383C49.6645 49.7048 43.1199 56.2361 35.0373 56.2361C35.0151 56.2361 34.9929 56.2361 34.9707 56.2361V57.5129C34.9707 57.5129 35.0151 57.5129 35.0373 57.5129C43.8225 57.5129 50.9438 50.4059 50.9438 41.6383C50.9438 32.8708 43.8225 25.7638 35.0373 25.7638C35.0151 25.7638 34.9929 25.7638 34.9707 25.7638V27.0405C34.9707 27.0405 35.0151 27.0405 35.0373 27.0405Z" fill="#58595B"/>
<path d="M49.6645 41.631C49.6645 33.5719 43.1199 27.0332 35.0373 27.0332C35.0151 27.0332 34.9929 27.0332 34.9707 27.0332V56.2214C34.9707 56.2214 35.0151 56.2214 35.0373 56.2214C43.1126 56.2214 49.6645 49.69 49.6645 41.6236V41.631Z" fill="#D9DADB"/>
<path d="M25.2981 51.1881H43.6154V45.2767H36.0873L44.7838 31.6678L25.2981 51.1881Z" fill="#C2181F"/>
<path d="M44.7838 31.6678H26.9324V37.5793H33.8171L25.2981 51.1881L44.7838 31.6678Z" fill="#DF1C24"/>
<path d="M67.7674 22.1697L59.3002 24.6199C59.241 24.6347 59.1818 24.6642 59.1227 24.6863L59.9435 27.5203C60.0027 27.5129 60.0692 27.4981 60.1284 27.4834L68.5956 25.0332C68.6548 25.0184 68.7139 24.9889 68.7731 24.9668L67.9523 22.1328C67.8931 22.1402 67.8265 22.155 67.7674 22.1697Z" fill="#231F20"/>
<path d="M59.9509 27.5203L59.1227 24.6864L58.8713 23.8008L57.8582 24.0886L58.3758 25.8746L58.679 26.9152L59.1966 28.7011L60.2098 28.4059L59.9509 27.5203Z" fill="#3B3A3C"/>
<path d="M69.5274 23.7786V23.7712L69.2242 22.738L68.8545 21.4686L67.8488 21.7638L67.9597 22.1328L68.7805 24.9668L68.8767 25.2989L69.8824 25.0037L69.5274 23.7786Z" fill="#3B3A3C"/>
<path d="M10.5822 24.6199L2.11497 22.1697C2.05581 22.155 1.98925 22.1402 1.93009 22.1328L1.10925 24.9668C1.16841 24.9889 1.22757 25.0184 1.28673 25.0332L9.75396 27.4834C9.81312 27.4981 9.87967 27.5129 9.93883 27.5203L10.7597 24.6863C10.7005 24.6642 10.6414 24.6347 10.5822 24.6199Z" fill="#231F20"/>
<path d="M11.0185 23.8008L10.7597 24.6864L9.93888 27.5203L9.68005 28.4059L10.6858 28.7011L11.2034 26.9152L11.4253 26.1476L12.0243 24.0886L11.0185 23.8008Z" fill="#3B3A3C"/>
<path d="M1.0279 21.4686L0.658151 22.738L0.354958 23.7712L0 25.0037L1.00571 25.2989L1.10185 24.9668L1.93008 22.1328L2.03361 21.7638L1.0279 21.4686Z" fill="#3B3A3C"/>
<mask id="mask0_778_9978" style="mask-type:luminance" maskUnits="userSpaceOnUse" x="30" y="63" width="9" height="28">
<path d="M34.8821 90.8782C32.6562 90.8782 30.8518 89.0775 30.8518 86.8561V67.9926C30.8518 65.7712 32.6562 63.9705 34.8821 63.9705C37.1079 63.9705 38.9123 65.7712 38.9123 67.9926V86.8561C38.9123 89.0775 37.1079 90.8782 34.8821 90.8782Z" fill="white"/>
</mask>
<g mask="url(#mask0_778_9978)">
<path d="M34.8821 90.8782C32.6562 90.8782 30.8518 89.0775 30.8518 86.8561V67.9926C30.8518 65.7712 32.6562 63.9705 34.8821 63.9705C37.1079 63.9705 38.9123 65.7712 38.9123 67.9926V86.8561C38.9123 89.0775 37.1079 90.8782 34.8821 90.8782Z" fill="#3B3A3C"/>
<path d="M30.6448 90.369L33.3365 89.5646V90.8561L30.6448 91.6605V90.369Z" fill="#231F20"/>
<path d="M34.2536 90.6125L33.588 89.5646V90.8561L34.2536 91.9041V90.6125Z" fill="#231F20"/>
<path d="M39.0307 90.369L36.3463 89.5646V90.8561L39.0307 91.6605V90.369Z" fill="#231F20"/>
<path d="M35.4293 90.6125L36.0949 89.5646V90.8561L35.4293 91.9041V90.6125Z" fill="#231F20"/>
<path d="M35.2296 89.7712H34.4606V91.8967H35.2296V89.7712Z" fill="#231F20"/>
<path d="M30.6448 88.8412L33.3365 88.0442V89.3283L30.6448 90.1327V88.8412Z" fill="#231F20"/>
<path d="M34.2536 89.0848L33.588 88.0442V89.3283L34.2536 90.3763V89.0848Z" fill="#231F20"/>
<path d="M39.0307 88.8412L36.3463 88.0442V89.3283L39.0307 90.1327V88.8412Z" fill="#231F20"/>
<path d="M35.4293 89.0848L36.0949 88.0442V89.3283L35.4293 90.3763V89.0848Z" fill="#231F20"/>
<path d="M35.2296 88.2509H34.4606V90.3763H35.2296V88.2509Z" fill="#231F20"/>
<path d="M30.6448 87.321L33.3365 86.5166V87.8081L30.6448 88.6125V87.321Z" fill="#231F20"/>
<path d="M34.2536 87.5646L33.588 86.5166V87.8081L34.2536 88.8561V87.5646Z" fill="#231F20"/>
<path d="M39.0307 87.321L36.3463 86.5166V87.8081L39.0307 88.6125V87.321Z" fill="#231F20"/>
<path d="M35.4293 87.5646L36.0949 86.5166V87.8081L35.4293 88.8561V87.5646Z" fill="#231F20"/>
<path d="M35.2296 86.7233H34.4606V88.8487H35.2296V86.7233Z" fill="#231F20"/>
<path d="M30.6448 85.7933L33.3365 84.9962V86.2804L30.6448 87.0848V85.7933Z" fill="#231F20"/>
<path d="M34.2536 86.0368L33.588 84.9962V86.2804L34.2536 87.3283V86.0368Z" fill="#231F20"/>
<path d="M39.0307 85.7933L36.3463 84.9962V86.2804L39.0307 87.0848V85.7933Z" fill="#231F20"/>
<path d="M35.4293 86.0368L36.0949 84.9962V86.2804L35.4293 87.3283V86.0368Z" fill="#231F20"/>
<path d="M35.2296 85.2029H34.4606V87.3283H35.2296V85.2029Z" fill="#231F20"/>
<path d="M30.6448 84.2731L33.3365 83.4686V84.7601L30.6448 85.5646V84.2731Z" fill="#231F20"/>
<path d="M34.2536 84.5166L33.588 83.4686V84.7601L34.2536 85.8081V84.5166Z" fill="#231F20"/>
<path d="M39.0307 84.2731L36.3463 83.4686V84.7601L39.0307 85.5646V84.2731Z" fill="#231F20"/>
<path d="M35.4293 84.5166L36.0949 83.4686V84.7601L35.4293 85.8081V84.5166Z" fill="#231F20"/>
<path d="M35.2296 83.6753H34.4606V85.8008H35.2296V83.6753Z" fill="#231F20"/>
<path d="M30.6448 82.7453L33.3365 81.9482V83.2324L30.6448 84.0368V82.7453Z" fill="#231F20"/>
<path d="M34.2536 82.9888L33.588 81.9482V83.2324L34.2536 84.2803V82.9888Z" fill="#231F20"/>
<path d="M39.0307 82.7453L36.3463 81.9482V83.2324L39.0307 84.0368V82.7453Z" fill="#231F20"/>
<path d="M35.4293 82.9888L36.0949 81.9482V83.2324L35.4293 84.2803V82.9888Z" fill="#231F20"/>
<path d="M35.2296 82.1549H34.4606V84.2804H35.2296V82.1549Z" fill="#231F20"/>
<path d="M30.6448 81.2251L33.3365 80.4207V81.7122L30.6448 82.5166V81.2251Z" fill="#231F20"/>
<path d="M34.2536 81.4686L33.588 80.4207V81.7122L34.2536 82.7601V81.4686Z" fill="#231F20"/>
<path d="M39.0307 81.2251L36.3463 80.4207V81.7122L39.0307 82.5166V81.2251Z" fill="#231F20"/>
<path d="M35.4293 81.4686L36.0949 80.4207V81.7122L35.4293 82.7601V81.4686Z" fill="#231F20"/>
<path d="M35.2296 80.6273H34.4606V82.7528H35.2296V80.6273Z" fill="#231F20"/>
<path d="M30.6448 79.6973L33.3365 78.9003V80.1844L30.6448 80.9888V79.6973Z" fill="#231F20"/>
<path d="M34.2536 79.9409L33.588 78.9003V80.1844L34.2536 81.2324V79.9409Z" fill="#231F20"/>
<path d="M39.0307 79.6973L36.3463 78.9003V80.1844L39.0307 80.9888V79.6973Z" fill="#231F20"/>
<path d="M35.4293 79.9409L36.0949 78.9003V80.1844L35.4293 81.2324V79.9409Z" fill="#231F20"/>
<path d="M35.2296 79.1069H34.4606V81.2324H35.2296V79.1069Z" fill="#231F20"/>
<path d="M30.6448 78.1771L33.3365 77.3727V78.6642L30.6448 79.4686V78.1771Z" fill="#231F20"/>
<path d="M34.2536 78.4207L33.588 77.3727V78.6642L34.2536 79.7122V78.4207Z" fill="#231F20"/>
<path d="M39.0307 78.1771L36.3463 77.3727V78.6642L39.0307 79.4686V78.1771Z" fill="#231F20"/>
<path d="M35.4293 78.4207L36.0949 77.3727V78.6642L35.4293 79.7122V78.4207Z" fill="#231F20"/>
<path d="M35.2296 77.5793H34.4606V79.7048H35.2296V77.5793Z" fill="#231F20"/>
<path d="M30.6448 76.6493L33.3365 75.8523V77.1364L30.6448 77.9409V76.6493Z" fill="#231F20"/>
<path d="M34.2536 76.8929L33.588 75.8523V77.1364L34.2536 78.1844V76.8929Z" fill="#231F20"/>
<path d="M39.0307 76.6493L36.3463 75.8523V77.1364L39.0307 77.9409V76.6493Z" fill="#231F20"/>
<path d="M35.4293 76.8929L36.0949 75.8523V77.1364L35.4293 78.1844V76.8929Z" fill="#231F20"/>
<path d="M35.2296 76.059H34.4606V78.1844H35.2296V76.059Z" fill="#231F20"/>
<path d="M30.6448 75.1291L33.3365 74.3247V75.6162L30.6448 76.4207V75.1291Z" fill="#231F20"/>
<path d="M34.2536 75.3727L33.588 74.3247V75.6162L34.2536 76.6642V75.3727Z" fill="#231F20"/>
<path d="M39.0307 75.1291L36.3463 74.3247V75.6162L39.0307 76.4207V75.1291Z" fill="#231F20"/>
<path d="M35.4293 75.3727L36.0949 74.3247V75.6162L35.4293 76.6642V75.3727Z" fill="#231F20"/>
<path d="M35.2296 74.5314H34.4606V76.6568H35.2296V74.5314Z" fill="#231F20"/>
<path d="M30.6448 73.6014L33.3365 72.8043V74.0885L30.6448 74.8929V73.6014Z" fill="#231F20"/>
<path d="M34.2536 73.8449L33.588 72.8043V74.0885L34.2536 75.1364V73.8449Z" fill="#231F20"/>
<path d="M39.0307 73.6014L36.3463 72.8043V74.0885L39.0307 74.8929V73.6014Z" fill="#231F20"/>
<path d="M35.4293 73.8449L36.0949 72.8043V74.0885L35.4293 75.1364V73.8449Z" fill="#231F20"/>
<path d="M35.2296 73.011H34.4606V75.1364H35.2296V73.011Z" fill="#231F20"/>
<path d="M30.6448 72.0812L33.3365 71.2767V72.5682L30.6448 73.3727V72.0812Z" fill="#231F20"/>
<path d="M34.2536 72.3247L33.588 71.2767V72.5682L34.2536 73.6162V72.3247Z" fill="#231F20"/>
<path d="M39.0307 72.0812L36.3463 71.2767V72.5682L39.0307 73.3727V72.0812Z" fill="#231F20"/>
<path d="M35.4293 72.3247L36.0949 71.2767V72.5682L35.4293 73.6162V72.3247Z" fill="#231F20"/>
<path d="M35.2296 71.4834H34.4606V73.6089H35.2296V71.4834Z" fill="#231F20"/>
<path d="M30.6448 70.5534L33.3365 69.7563V71.0405L30.6448 71.8449V70.5534Z" fill="#231F20"/>
<path d="M34.2536 70.7969L33.588 69.7563V71.0405L34.2536 72.0885V70.7969Z" fill="#231F20"/>
<path d="M39.0307 70.5534L36.3463 69.7563V71.0405L39.0307 71.8449V70.5534Z" fill="#231F20"/>
<path d="M35.4293 70.7969L36.0949 69.7563V71.0405L35.4293 72.0885V70.7969Z" fill="#231F20"/>
<path d="M35.2296 69.963H34.4606V72.0885H35.2296V69.963Z" fill="#231F20"/>
<path d="M30.6448 69.0332L33.3365 68.2288V69.5203L30.6448 70.3247V69.0332Z" fill="#231F20"/>
<path d="M34.2536 69.2767L33.588 68.2288V69.5203L34.2536 70.5682V69.2767Z" fill="#231F20"/>
<path d="M39.0307 69.0332L36.3463 68.2288V69.5203L39.0307 70.3247V69.0332Z" fill="#231F20"/>
<path d="M35.4293 69.2767L36.0949 68.2288V69.5203L35.4293 70.5682V69.2767Z" fill="#231F20"/>
<path d="M35.2296 68.4354H34.4606V70.5609H35.2296V68.4354Z" fill="#231F20"/>
<path d="M30.6448 67.5054L33.3365 66.7084V67.9925L30.6448 68.7969V67.5054Z" fill="#231F20"/>
<path d="M34.2536 67.749L33.588 66.7084V67.9925L34.2536 69.0405V67.749Z" fill="#231F20"/>
<path d="M39.0307 67.5054L36.3463 66.7084V67.9925L39.0307 68.7969V67.5054Z" fill="#231F20"/>
<path d="M35.4293 67.749L36.0949 66.7084V67.9925L35.4293 69.0405V67.749Z" fill="#231F20"/>
<path d="M35.2296 66.915H34.4606V69.0405H35.2296V66.915Z" fill="#231F20"/>
<path d="M30.6448 65.9852L33.3365 65.1808V66.4723L30.6448 67.2767V65.9852Z" fill="#231F20"/>
<path d="M34.2536 66.2288L33.588 65.1808V66.4723L34.2536 67.5203V66.2288Z" fill="#231F20"/>
<path d="M39.0307 65.9852L36.3463 65.1808V66.4723L39.0307 67.2767V65.9852Z" fill="#231F20"/>
<path d="M35.4293 66.2288L36.0949 65.1808V66.4723L35.4293 67.5203V66.2288Z" fill="#231F20"/>
<path d="M35.2296 65.3875H34.4606V67.5129H35.2296V65.3875Z" fill="#231F20"/>
<path d="M30.6448 64.4576L33.3365 63.6605V64.9447L30.6448 65.7491V64.4576Z" fill="#231F20"/>
<path d="M34.2536 64.7011L33.588 63.6605V64.9447L34.2536 65.9926V64.7011Z" fill="#231F20"/>
<path d="M39.0307 64.4576L36.3463 63.6605V64.9447L39.0307 65.7491V64.4576Z" fill="#231F20"/>
<path d="M35.4293 64.7011L36.0949 63.6605V64.9447L35.4293 65.9926V64.7011Z" fill="#231F20"/>
<path d="M35.2296 63.8672H34.4606V65.9926H35.2296V63.8672Z" fill="#231F20"/>
<path d="M30.6448 62.8635L33.3365 62.0664V63.3505L30.6448 64.155V62.8635Z" fill="#231F20"/>
<path d="M34.2536 63.107L33.588 62.0664V63.3505L34.2536 64.3985V63.107Z" fill="#231F20"/>
<path d="M39.0307 62.8635L36.3463 62.0664V63.3505L39.0307 64.155V62.8635Z" fill="#231F20"/>
<path d="M35.4293 63.107L36.0949 62.0664V63.3505L35.4293 64.3985V63.107Z" fill="#231F20"/>
<path d="M35.2296 62.2731H34.4606V64.3985H35.2296V62.2731Z" fill="#231F20"/>
</g>
<path d="M71.6942 45.7269L90.0411 23.941H75.229L76.3752 17.4022H99.1887L99.1369 23.6753L80.6865 45.5646H95.5504L94.4041 51.941H71.8495L71.6942 45.7196V45.7269Z" fill="#DF1C24"/>
<path d="M106.354 17.4022H113.993L107.915 51.9483H100.276L106.354 17.4022Z" fill="#DF1C24"/>
<path d="M124.442 41.417L122.572 51.9483H114.933L121.011 17.4022H134.211C141.643 17.4022 145.23 20.2583 145.23 25.1808C145.23 25.9041 145.074 26.9963 144.919 27.8229L144.246 31.7122C143.1 38.1476 140.453 41.4096 131.305 41.4096H124.442V41.417ZM137.177 28.2436C137.28 27.6236 137.332 27.0996 137.332 26.738C137.332 24.9742 136.289 24.1476 133.952 24.1476H127.511L125.64 34.834H131.926C135.461 34.834 136.237 33.5867 136.711 30.9963L137.177 28.2436Z" fill="#DF1C24"/>
<path d="M155.213 41.417L153.342 51.9483H145.703L151.782 17.4022H164.982C172.414 17.4022 176 20.2583 176 25.1808C176 25.9041 175.845 26.9963 175.689 27.8229L175.017 31.7122C173.87 38.1476 171.223 41.4096 162.075 41.4096H155.213V41.417ZM167.947 28.2436C168.051 27.6236 168.102 27.0996 168.102 26.738C168.102 24.9742 167.06 24.1476 164.723 24.1476H158.274L156.403 34.834H162.689C166.224 34.834 167 33.5867 167.474 30.9963L167.94 28.2436H167.947Z" fill="#DF1C24"/>
<path d="M71.5315 69.0332C71.5315 66.059 72.8256 64.3764 75.7836 64.3764C76.8189 64.3764 78.1426 64.5314 79.0004 64.738V59.4834L82.7349 58.9668V77.2399H79.8064L79.4145 76.2288C78.5345 76.7971 76.9002 77.4982 75.5248 77.4982C72.9587 77.4982 71.5315 75.9188 71.5315 72.8413V69.0332ZM79.0004 67.9188C78.3496 67.7638 77.3957 67.6089 76.6118 67.6089C75.6283 67.6089 75.2659 68.2066 75.2659 69.0332V72.8413C75.2659 73.7196 75.6283 74.2657 76.6118 74.2657C77.4696 74.2657 78.4532 73.7491 79.0004 73.2841V67.9262V67.9188Z" fill="#4D4D4F"/>
<path d="M89.1906 72.2436V72.6052C89.1906 74.0517 89.76 74.4429 91.4757 74.4429C92.6441 74.4429 94.197 74.2362 95.3137 73.8968L95.8609 76.6938C94.7221 77.1071 92.8807 77.4982 91.1133 77.4982C87.0165 77.4982 85.4562 75.4761 85.4562 72.3765V69.4244C85.4562 66.7086 86.6763 64.3765 90.8767 64.3765C95.077 64.3765 95.9866 66.8635 95.9866 69.6016V72.2436H89.1906ZM92.4592 68.9078C92.4592 68.0296 92.2004 67.3063 90.9063 67.3063C89.6121 67.3063 89.198 68.0296 89.198 68.9078V69.454H92.4666V68.9078H92.4592Z" fill="#4D4D4F"/>
<path d="M98.708 77.2325V59.4761L102.442 58.9595V77.2325H98.708Z" fill="#4D4D4F"/>
<path d="M105.814 63.0481V59.085H109.549V63.0481H105.814ZM105.814 77.2326V64.6274H109.549V77.2326H105.814Z" fill="#4D4D4F"/>
<path d="M120.102 77.2325H115.332L111.361 64.6273H115.147L117.713 73.5572L120.279 64.6273H124.065L120.094 77.2325H120.102Z" fill="#4D4D4F"/>
<path d="M128.976 72.2436V72.6052C128.976 74.0517 129.545 74.4429 131.261 74.4429C132.429 74.4429 133.982 74.2362 135.099 73.8968L135.646 76.6938C134.507 77.1071 132.666 77.4982 130.898 77.4982C126.801 77.4982 125.241 75.4761 125.241 72.3765V69.4244C125.241 66.7086 126.461 64.3765 130.662 64.3765C134.862 64.3765 135.772 66.8635 135.772 69.6016V72.2436H128.976ZM132.244 68.9078C132.244 68.0296 131.985 67.3063 130.691 67.3063C129.397 67.3063 128.983 68.0296 128.983 68.9078V69.454H132.252V68.9078H132.244Z" fill="#4D4D4F"/>
<path d="M142.227 69.5499V77.2399H138.493V64.6348H141.606L141.865 65.8525C142.641 65.3359 144.254 64.5831 145.259 64.3765L145.57 67.8968C144.453 68.3396 143.026 68.9816 142.227 69.5499Z" fill="#4D4D4F"/>
<path d="M147.441 63.0481V59.085H151.175V63.0481H147.441ZM147.441 77.2326V64.6274H151.175V77.2326H147.441Z" fill="#4D4D4F"/>
<path d="M157.631 72.2436V72.6052C157.631 74.0517 158.2 74.4429 159.916 74.4429C161.084 74.4429 162.637 74.2362 163.754 73.8968L164.301 76.6938C163.162 77.1071 161.321 77.4982 159.554 77.4982C155.457 77.4982 153.897 75.4761 153.897 72.3765V69.4244C153.897 66.7086 155.117 64.3765 159.317 64.3765C163.517 64.3765 164.427 66.8635 164.427 69.6016V72.2436H157.631ZM160.9 68.9078C160.9 68.0296 160.641 67.3063 159.347 67.3063C158.053 67.3063 157.638 68.0296 157.638 68.9078V69.454H160.907V68.9078H160.9Z" fill="#4D4D4F"/>
<path d="M171.09 77.4908C169.714 77.4908 167.747 77.1513 166.498 76.738L167.097 73.9705C168.132 74.2805 169.507 74.5388 170.912 74.5388C172.029 74.5388 172.206 74.2288 172.206 73.476C172.206 72.6716 172.184 72.5683 170.158 72.0812C167.097 71.3284 166.816 70.5019 166.816 68.1476C166.816 65.4834 167.851 64.369 171.637 64.369C172.598 64.369 174.358 64.5019 175.475 64.7823L175.135 67.6827C174.018 67.476 172.643 67.321 171.659 67.321C170.572 67.321 170.313 67.6089 170.313 68.1771C170.313 68.952 170.417 69.0554 171.918 69.3948C175.519 70.1993 175.786 70.9742 175.786 73.4834C175.786 75.9926 174.699 77.4982 171.09 77.4982V77.4908Z" fill="#4D4D4F"/>
</svg>
