<svg width="21" height="14" viewBox="0 0 21 14" fill="none" xmlns="http://www.w3.org/2000/svg">
<path d="M14.4241 7.02952L19.8064 2.31967V11.6856L14.4241 7.02952ZM7.48856 7.82713L9.37864 9.47963C9.67528 9.73346 10.062 9.88681 10.4847 9.88681H10.4996H10.4987H10.5109C10.9345 9.88681 11.3212 9.73258 11.6214 9.47699L11.6187 9.47875L13.5088 7.82625L19.2543 12.7961H1.7457L7.48856 7.82713ZM1.73782 1.20302H19.2648L10.8461 8.56745C10.7514 8.64286 10.6342 8.68386 10.5136 8.68379H10.5013H10.5022H10.4899C10.3688 8.68394 10.2513 8.64261 10.1565 8.56657L10.1574 8.56745L1.73782 1.20302ZM1.19442 2.31879L6.5759 7.02864L1.19442 11.6821V2.31879ZM20.0952 0.167454C19.8852 0.0616935 19.6384 0 19.3768 0H1.62669C1.37307 6.10192e-05 1.12294 0.0594995 0.896037 0.173623L0.905663 0.169216C0.634028 0.304158 0.405271 0.512918 0.245233 0.771913C0.0851941 1.03091 0.00025144 1.32982 0 1.63488L0 12.3625C0.000463248 12.7966 0.171903 13.2129 0.476703 13.5199C0.781502 13.8269 1.19477 13.9995 1.62582 14H19.3742C19.8052 13.9995 20.2185 13.8269 20.5233 13.5199C20.8281 13.2129 20.9995 12.7966 21 12.3625V1.6384V1.63488C21 0.994145 20.6334 0.438905 20.0996 0.17186L20.09 0.167454H20.0952Z" fill="black"/>
</svg>
