<svg width="24" height="24" viewBox="0 0 24 24" fill="none" xmlns="http://www.w3.org/2000/svg">
<path d="M6.15071 1.21844C3.39126 1.21844 1.16326 3.45684 1.15877 6.22092L1.14756 13.1347C1.14321 15.7768 3.19094 17.9145 5.77943 18.1021V22.4216C5.77931 22.4928 5.80036 22.5624 5.83988 22.6216C5.87941 22.6809 5.93564 22.727 6.00144 22.7542C6.06723 22.7815 6.13963 22.7885 6.20945 22.7745C6.27927 22.7605 6.34336 22.7261 6.39359 22.6757L10.9202 18.1378H17.7188C20.4783 18.1378 22.7101 15.9 22.7101 13.1354V6.22162C22.71 3.45795 20.4895 1.21844 17.73 1.21844H6.15071ZM8.33574 8.60107C8.92691 8.60107 9.41317 9.08808 9.41317 9.6792C9.41316 10.2703 8.9269 10.7573 8.33574 10.7573C7.74459 10.7573 7.25762 10.2703 7.25762 9.6792C7.25761 9.08808 7.74458 8.60107 8.33574 8.60107ZM11.9288 8.60107C12.52 8.60107 13.0069 9.08808 13.0069 9.6792C13.0069 10.2703 12.5199 10.7573 11.9288 10.7573C11.3376 10.7573 10.8507 10.2703 10.8507 9.6792C10.8507 9.08808 11.3376 8.60107 11.9288 8.60107ZM15.5232 8.60107C16.1144 8.60107 16.6014 9.08808 16.6014 9.6792C16.6014 10.2703 16.1144 10.7573 15.5232 10.7573C14.9321 10.7573 14.4444 10.2703 14.4444 9.6792C14.4444 9.08808 14.9321 8.60107 15.5232 8.60107Z" fill="white"/>
</svg>
