<svg width="24" height="24" viewBox="0 0 24 24" fill="none" xmlns="http://www.w3.org/2000/svg">
<g clip-path="url(#clip0_277_10005)">
<path d="M12.0938 18.9797C12.0938 15.3281 15.0563 12.3656 18.7078 12.3656C20.3719 12.3656 21.9703 12.9937 23.1938 14.1187C23.2266 11.8594 23.2078 9.59999 23.1375 7.34061C23.1 5.78905 22.2234 4.22811 20.7563 3.45936C20.0016 3.06093 19.2188 2.67655 18.4313 2.31093C15.3047 3.32343 11.6484 4.65468 7.95469 6.30468C7.23281 6.62343 6.75 7.32655 6.71719 8.11874C6.66094 9.89999 6.64219 11.7375 6.66563 13.5562C6.67031 13.6922 6.5625 13.8094 6.42656 13.8141C6.34219 13.8187 6.26719 13.7766 6.21563 13.7109C5.82656 13.2094 5.44219 12.7172 5.07188 12.2297C5.01562 12.15 4.90781 12.1265 4.82344 12.1781C4.53281 12.3516 4.24688 12.5203 3.97031 12.6891C3.81563 12.7828 3.62344 12.6562 3.61875 12.4641C3.60938 10.6547 3.65625 8.83593 3.75 7.07811C3.79219 6.33749 4.25625 5.63905 4.94531 5.29686C8.48438 3.54843 12.2625 2.11874 15.4828 1.06405C14.7328 0.768738 13.9875 0.50155 13.2609 0.248425C12.2813 -0.0890747 11.2125 -0.0890747 10.2328 0.248425C7.80469 1.08749 5.15156 2.17968 2.73281 3.45936C1.26563 4.22811 0.389063 5.78905 0.351563 7.34061C0.257812 10.4437 0.257812 13.5469 0.351563 16.65C0.389063 18.2016 1.26563 19.7625 2.73281 20.5312C5.15156 21.8109 7.8 22.9031 10.2328 23.7422C11.2125 24.0797 12.2813 24.0797 13.2609 23.7422C13.4719 23.6672 13.6875 23.5922 13.9031 23.5172C12.7359 22.2984 12.0891 20.6719 12.0938 18.9797Z" fill="white"/>
<path d="M18.7078 13.9641C15.9328 13.9641 13.6875 16.2094 13.6875 18.9844C13.6875 21.7547 15.9375 24 18.7078 24C21.4781 24 23.7281 21.7547 23.7281 18.9797C23.7234 16.2094 21.4781 13.9641 18.7078 13.9641ZM21.7266 19.2328C21.7266 19.5047 21.5062 19.725 21.2344 19.725H20.0437C19.7719 19.725 19.5516 19.9453 19.5516 20.2172V21.3938C19.5516 21.6656 19.3312 21.8859 19.0594 21.8859H18.5719C18.3 21.8859 18.0797 21.6656 18.0797 21.3938V20.2172C18.0797 19.9453 17.8594 19.725 17.5875 19.725H16.4062C16.1344 19.725 15.9141 19.5047 15.9141 19.2328V18.7453C15.9141 18.4734 16.1344 18.2531 16.4062 18.2531H17.5875C17.8594 18.2531 18.0797 18.0328 18.0797 17.7609V16.575C18.0797 16.3031 18.3 16.0828 18.5719 16.0828H19.0594C19.3312 16.0828 19.5516 16.3031 19.5516 16.575V17.7609C19.5516 18.0328 19.7719 18.2531 20.0437 18.2531H21.2344C21.5062 18.2531 21.7266 18.4734 21.7266 18.7453V19.2328Z" fill="white"/>
</g>
<defs>
<clipPath id="clip0_277_10005">
<rect width="24" height="24" fill="white"/>
</clipPath>
</defs>
</svg>
