<svg width="22" height="26" viewBox="0 0 22 26" fill="none" xmlns="http://www.w3.org/2000/svg">
<path d="M20.6986 18.1177C19.1236 16.7865 18.2205 14.8406 18.2205 12.7792V9.875C18.2205 6.20938 15.4976 3.175 11.9705 2.66667V1.54167C11.9705 0.965625 11.5038 0.5 10.9288 0.5C10.3538 0.5 9.88715 0.965625 9.88715 1.54167V2.66667C6.35902 3.175 3.63715 6.20938 3.63715 9.875V12.7792C3.63715 14.8406 2.73402 16.7865 1.14965 18.126C0.744438 18.4729 0.512146 18.9771 0.512146 19.5104C0.512146 20.5156 1.32985 21.3333 2.33506 21.3333H19.5226C20.5278 21.3333 21.3455 20.5156 21.3455 19.5104C21.3455 18.9771 21.1132 18.4729 20.6986 18.1177Z" fill="white"/>
<path d="M10.9288 25.5C12.8153 25.5 14.3934 24.1552 14.7559 22.375H7.10172C7.46422 24.1552 9.04234 25.5 10.9288 25.5Z" fill="white"/>
</svg>
