<svg width="23" height="24" viewBox="0 0 23 24" fill="none" xmlns="http://www.w3.org/2000/svg">
<path fill-rule="evenodd" clip-rule="evenodd" d="M10.3516 6.15612C10.6754 6.54878 10.6194 7.14672 10.2248 7.52544L8.92165 8.77135C8.85152 8.83535 8.80431 8.92059 8.78728 9.014C8.77025 9.10741 8.78433 9.20383 8.82736 9.28846C9.97967 11.4061 11.6727 13.1806 13.7339 14.4311C13.8163 14.4778 13.9118 14.4963 14.0058 14.4835C14.0997 14.4707 14.1868 14.4275 14.2538 14.3604L15.5609 13.1099C15.9547 12.7328 16.5524 12.7033 16.929 13.0418L20.5293 16.2781C20.9463 16.6532 20.93 17.3267 20.494 17.7432L17.8032 20.3184C17.0098 21.0773 15.8524 21.273 14.939 20.8032C9.45354 17.9879 5.07941 13.4029 2.52536 7.79106C2.09775 6.85617 2.34611 5.70802 3.13953 4.94911L5.80539 2.39772C6.23949 1.9821 6.90935 1.99552 7.26509 2.42544L10.3516 6.15612ZM0.705022 8.61953C-0.106111 6.84209 0.405617 4.79683 1.75668 3.50422L4.42225 0.953111C5.58422 -0.159118 7.6152 -0.288672 8.80598 1.15043L11.8598 4.84253C11.8707 4.85506 11.8814 4.86774 11.8921 4.88058C12.963 6.17561 12.6675 7.95296 11.6099 8.96823L11.6069 8.97107L11.2086 9.35185C11.9152 10.3823 12.7832 11.2923 13.779 12.0468L14.1776 11.6655C15.2369 10.6517 17.0216 10.4357 18.266 11.5544L21.8664 14.7907C23.2604 16.0447 23.0404 18.0752 21.8768 19.1881L21.8756 19.1894L19.1861 21.7633C17.8332 23.0574 15.7642 23.4763 14.025 22.5821M0.705022 8.61953C3.44546 14.6409 8.13943 19.5611 14.025 22.5821L0.705022 8.61953Z" fill="black"/>
</svg>
