<svg width="22" height="26" viewBox="0 0 22 26" fill="none" xmlns="http://www.w3.org/2000/svg">
<path d="M10.8422 12.5425C12.4967 12.5425 13.9293 11.9492 15.0998 10.7784C16.2704 9.6079 16.8637 8.17568 16.8637 6.52106C16.8637 4.86702 16.2704 3.4346 15.0996 2.26369C13.9289 1.09334 12.4965 0.499969 10.8422 0.499969C9.18761 0.499969 7.75539 1.09334 6.58485 2.26388C5.41431 3.43441 4.82074 4.86683 4.82074 6.52106C4.82074 8.17568 5.41431 9.6081 6.58504 10.7786C7.75577 11.949 9.18819 12.5425 10.8422 12.5425Z" fill="white"/>
<path d="M21.3782 19.7237C21.3445 19.2365 21.2762 18.7051 21.1757 18.144C21.0742 17.5787 20.9436 17.0442 20.7872 16.5558C20.6256 16.0509 20.4059 15.5523 20.1343 15.0745C19.8524 14.5786 19.5212 14.1468 19.1497 13.7914C18.7612 13.4197 18.2855 13.1208 17.7354 12.9028C17.1872 12.686 16.5797 12.5761 15.9299 12.5761C15.6747 12.5761 15.4279 12.6808 14.9512 12.9911C14.6579 13.1824 14.3148 13.4037 13.9318 13.6484C13.6043 13.8571 13.1606 14.0526 12.6126 14.2296C12.078 14.4026 11.5352 14.4903 10.9994 14.4903C10.4636 14.4903 9.92099 14.4026 9.38579 14.2296C8.83838 14.0528 8.39473 13.8572 8.06762 13.6486C7.68825 13.4062 7.34492 13.1849 7.04719 12.9909C6.57111 12.6806 6.32411 12.5759 6.06891 12.5759C5.41888 12.5759 4.81158 12.686 4.2636 12.903C3.7139 13.1206 3.23802 13.4195 2.84911 13.7916C2.47775 14.1472 2.14645 14.5788 1.86492 15.0745C1.59351 15.5523 1.37378 16.0507 1.21204 16.5559C1.05582 17.0444 0.925171 17.5787 0.8237 18.144C0.723183 18.7044 0.6549 19.236 0.62114 19.7242C0.587952 20.2026 0.571167 20.6991 0.571167 21.2005C0.571167 22.5055 0.986015 23.562 1.80408 24.3411C2.61203 25.11 3.6811 25.5 4.98115 25.5H17.0188C18.3189 25.5 19.3875 25.1102 20.1957 24.3411C21.0139 23.5626 21.4288 22.5059 21.4288 21.2003C21.4286 20.6966 21.4116 20.1997 21.3782 19.7237Z" fill="white"/>
</svg>
