<svg viewBox="0 0 64 64" xml:space="preserve" xmlns="http://www.w3.org/2000/svg"><circle cx="32" cy="32" fill="#1768eb" r="32" class="fill-4f5d73"></circle><path d="M23.804 55.596c1.39.616 2.995.035 3.585-1.297l4.843-10.935 7.66 3.393a1.497 1.497 0 0 0 1.425-.115c.427-.277.683-.75.683-1.257V14.616a1.501 1.501 0 0 0-2.514-1.106L16.851 34.254a1.501 1.501 0 0 0 .406 2.478l7.739 3.428-4.843 10.935c-.59 1.332.059 2.911 1.448 3.526l2.203.975" fill="#231F20" opacity=".2" class="fill-231f20"></path><path d="M41.457 11.243a1.502 1.502 0 0 0-1.618.267L17.205 32.254a1.501 1.501 0 0 0 .406 2.478l22.635 10.025C40.44 44.842 42 45 42 43.385V12.616c0-.595.002-1.134-.543-1.373z" fill="#ffffff" class="fill-e0e0d1"></path><path d="m28.497 31.054-7.99 18.04c-.59 1.332.059 2.911 1.448 3.526l2.202.975c1.39.616 2.995.035 3.585-1.297l7.775-17.554c-2.38-1.156-4.736-2.354-7.02-3.69z" fill="#ffffff" class="fill-e0e0d1"></path></svg>