<svg width="72" height="72" viewBox="0 0 72 72" fill="none" xmlns="http://www.w3.org/2000/svg">
<path d="M13.5 67.5H58.5V56.25C58.4952 52.0743 56.8343 48.071 53.8817 45.1183C50.929 42.1657 46.9257 40.5048 42.75 40.5H29.25C25.0743 40.5048 21.071 42.1657 18.1183 45.1183C15.1657 48.071 13.5048 52.0743 13.5 56.25V67.5Z" fill="white"/>
<path d="M20.25 20.25C20.25 23.3651 21.1737 26.4102 22.9044 29.0002C24.635 31.5903 27.0948 33.609 29.9727 34.8011C32.8507 35.9932 36.0175 36.3051 39.0727 35.6974C42.1279 35.0897 44.9343 33.5896 47.1369 31.3869C49.3396 29.1843 50.8397 26.3779 51.4474 23.3227C52.0551 20.2675 51.7432 17.1007 50.5511 14.2227C49.359 11.3448 47.3403 8.88499 44.7502 7.15435C42.1602 5.42372 39.1151 4.5 36 4.5C31.8228 4.5 27.8168 6.15937 24.8631 9.11307C21.9094 12.0668 20.25 16.0728 20.25 20.25Z" fill="white"/>
</svg>
